<svg width="31" height="30" viewBox="0 0 31 30" fill="none" xmlns="http://www.w3.org/2000/svg">
<path fill-rule="evenodd" clip-rule="evenodd" d="M15.5001 29.5833C23.5542 29.5833 30.0834 23.0542 30.0834 15C30.0834 6.94585 23.5542 0.416667 15.5001 0.416667C7.44593 0.416667 0.916748 6.94585 0.916748 15C0.916748 23.0542 7.44593 29.5833 15.5001 29.5833ZM16.185 9.8516C16.6122 9.42447 17.3047 9.42447 17.7318 9.8516L22.1068 14.2266C22.5339 14.6537 22.5339 15.3463 22.1068 15.7734L17.7318 20.1484C17.3047 20.5755 16.6122 20.5755 16.185 20.1484C15.7579 19.7213 15.7579 19.0287 16.185 18.6016L18.6929 16.0937H9.66675C9.06269 16.0937 8.573 15.6041 8.573 15C8.573 14.3959 9.06269 13.9062 9.66675 13.9062H18.6929L16.185 11.3984C15.7579 10.9713 15.7579 10.2787 16.185 9.8516Z" fill="#1C274C"/>
</svg>
