<svg width="25" height="25" viewBox="0 0 25 25" fill="none" xmlns="http://www.w3.org/2000/svg">
<path d="M14.0625 2.0835C14.0625 2.0835 16.4932 2.30447 19.5868 5.39806C22.6804 8.49165 22.9013 10.9223 22.9013 10.9223" stroke="white" stroke-width="1.5" stroke-linecap="round"/>
<path d="M14.7991 5.76636C14.7991 5.76636 15.8303 6.06099 17.3771 7.60778C18.9239 9.15458 19.2185 10.1858 19.2185 10.1858" stroke="white" stroke-width="1.5" stroke-linecap="round"/>
<path d="M15.7299 15.6533L15.1861 15.1368L15.7299 15.6533ZM16.2043 15.1539L16.7481 15.6704L16.2043 15.1539ZM18.7217 14.8045L18.3475 15.4545H18.3475L18.7217 14.8045ZM20.7118 15.95L20.3377 16.6L20.7118 15.95ZM21.2726 19.54L21.8164 20.0566H21.8164L21.2726 19.54ZM19.7928 21.0979L19.249 20.5814L19.7928 21.0979ZM18.4128 21.8366L18.4865 22.5829H18.4865L18.4128 21.8366ZM8.141 17.1616L8.68479 16.6451L8.141 17.1616ZM3.12801 7.25618L2.37909 7.29638V7.29638L3.12801 7.25618ZM9.87242 8.85741L10.4162 9.37392L9.87242 8.85741ZM10.0357 5.93031L10.6481 5.49733L10.0357 5.93031ZM8.72214 4.07252L8.10975 4.5055L8.10975 4.5055L8.72214 4.07252ZM5.48068 3.759L6.02447 4.27552H6.02447L5.48068 3.759ZM3.84568 5.48035L3.30188 4.96383H3.30188L3.84568 5.48035ZM11.5241 13.5999L12.0679 13.0834L11.5241 13.5999ZM16.2737 16.1699L16.7481 15.6704L15.6605 14.6373L15.1861 15.1368L16.2737 16.1699ZM18.3475 15.4545L20.3377 16.6L21.0859 15.3L19.0958 14.1545L18.3475 15.4545ZM20.7288 19.0235L19.249 20.5814L20.3366 21.6144L21.8164 20.0566L20.7288 19.0235ZM18.3391 21.0902C16.8362 21.2385 12.9259 21.1102 8.68479 16.6451L7.59721 17.6782C12.2035 22.5278 16.5947 22.7697 18.4865 22.5829L18.3391 21.0902ZM8.68479 16.6451C4.64181 12.3886 3.96172 8.79578 3.87693 7.21599L2.37909 7.29638C2.4821 9.21558 3.29718 13.151 7.59721 17.6782L8.68479 16.6451ZM10.1174 9.68847L10.4162 9.37392L9.32862 8.34089L9.02986 8.65544L10.1174 9.68847ZM10.6481 5.49733L9.33453 3.63953L8.10975 4.5055L9.42328 6.3633L10.6481 5.49733ZM4.93688 3.24249L3.30188 4.96383L4.38947 5.99687L6.02447 4.27552L4.93688 3.24249ZM9.57365 9.17195C9.02986 8.65544 9.02916 8.65617 9.02847 8.6569C9.02823 8.65716 9.02753 8.6579 9.02705 8.6584C9.0261 8.65942 9.02513 8.66046 9.02414 8.66152C9.02217 8.66364 9.02013 8.66586 9.01802 8.66818C9.0138 8.67282 9.00932 8.67785 9.0046 8.68327C8.99516 8.69412 8.98477 8.70657 8.97363 8.72064C8.95135 8.7488 8.92605 8.78351 8.89947 8.82506C8.84616 8.90837 8.78815 9.01839 8.73895 9.15666C8.63894 9.4377 8.5839 9.81129 8.65249 10.2794C8.78732 11.1996 9.39138 12.4436 10.9803 14.1164L12.0679 13.0834C10.5787 11.5155 10.2075 10.5455 10.1366 10.0619C10.1024 9.82814 10.1369 9.70237 10.1521 9.65953C10.1606 9.63586 10.1666 9.62781 10.1629 9.63354C10.1612 9.63629 10.1571 9.64233 10.1498 9.65151C10.1462 9.6561 10.1418 9.66149 10.1364 9.66764C10.1337 9.67072 10.1308 9.674 10.1277 9.67747C10.1261 9.67921 10.1245 9.68099 10.1227 9.68282C10.1219 9.68374 10.121 9.68467 10.1201 9.68561C10.1197 9.68608 10.119 9.6868 10.1188 9.68703C10.1181 9.68775 10.1174 9.68847 9.57365 9.17195ZM10.9803 14.1164C12.5647 15.7845 13.7569 16.4353 14.6611 16.5822C15.1247 16.6575 15.4986 16.5972 15.7808 16.4859C15.9188 16.4315 16.0278 16.3676 16.1093 16.3098C16.15 16.2809 16.1838 16.2536 16.2111 16.2297C16.2247 16.2177 16.2367 16.2066 16.2471 16.1966C16.2523 16.1916 16.2571 16.1868 16.2616 16.1824C16.2638 16.1801 16.2659 16.178 16.2679 16.1759C16.2689 16.1748 16.2699 16.1738 16.2709 16.1728C16.2714 16.1723 16.2721 16.1716 16.2723 16.1713C16.273 16.1706 16.2737 16.1699 15.7299 15.6533C15.1861 15.1368 15.1868 15.1361 15.1875 15.1354C15.1877 15.1352 15.1884 15.1344 15.1888 15.134C15.1897 15.133 15.1906 15.1321 15.1915 15.1312C15.1932 15.1294 15.1949 15.1277 15.1966 15.126C15.1999 15.1227 15.2031 15.1196 15.2061 15.1167C15.212 15.1109 15.2173 15.1061 15.2219 15.1021C15.2311 15.094 15.2377 15.089 15.2416 15.0863C15.2494 15.0807 15.2462 15.0843 15.2304 15.0905C15.2049 15.1006 15.1046 15.1346 14.9015 15.1016C14.4723 15.0319 13.5616 14.656 12.0679 13.0834L10.9803 14.1164ZM9.33453 3.63953C8.28915 2.16099 6.1995 1.91318 4.93688 3.24249L6.02447 4.27552C6.58374 3.68671 7.56561 3.73589 8.10975 4.5055L9.33453 3.63953ZM3.87693 7.21599C3.85403 6.78933 4.04001 6.36478 4.38947 5.99687L3.30188 4.96383C2.74796 5.54701 2.32858 6.35536 2.37909 7.29638L3.87693 7.21599ZM19.249 20.5814C18.955 20.891 18.6443 21.0601 18.3391 21.0902L18.4865 22.5829C19.255 22.5071 19.8782 22.0971 20.3366 21.6144L19.249 20.5814ZM10.4162 9.37392C11.4132 8.32426 11.4845 6.68032 10.6481 5.49733L9.42328 6.3633C9.87111 6.99669 9.8036 7.84083 9.32862 8.34089L10.4162 9.37392ZM20.3377 16.6C21.2096 17.1019 21.3815 18.3363 20.7288 19.0235L21.8164 20.0566C23.1613 18.6406 22.77 16.2693 21.0859 15.3L20.3377 16.6ZM16.7481 15.6704C17.1598 15.237 17.8013 15.1401 18.3475 15.4545L19.0958 14.1545C17.9638 13.5029 16.5605 13.6898 15.6605 14.6373L16.7481 15.6704Z" fill="white"/>
</svg>
