<svg width="343" height="218" viewBox="0 0 343 218" fill="none" xmlns="http://www.w3.org/2000/svg">
<g clip-path="url(#clip0_504_947)">
<rect width="343" height="218" rx="16" fill="#105652"/>
<path d="M107.551 155.533C45.5389 73.7926 11.4195 170.221 5 218H338.514C345.735 200.083 346.74 140.521 290.505 53.3576C220.212 -55.5969 185.066 257.708 107.551 155.533Z" fill="white" fill-opacity="0.1"/>
<path d="M24.592 185.416C24.592 184.328 24.8427 183.352 25.344 182.488C25.856 181.624 26.544 180.952 27.408 180.472C28.2827 179.981 29.2373 179.736 30.272 179.736C31.456 179.736 32.5067 180.029 33.424 180.616C34.352 181.192 35.024 182.013 35.44 183.08H33.248C32.96 182.493 32.56 182.056 32.048 181.768C31.536 181.48 30.944 181.336 30.272 181.336C29.536 181.336 28.88 181.501 28.304 181.832C27.728 182.163 27.2747 182.637 26.944 183.256C26.624 183.875 26.464 184.595 26.464 185.416C26.464 186.237 26.624 186.957 26.944 187.576C27.2747 188.195 27.728 188.675 28.304 189.016C28.88 189.347 29.536 189.512 30.272 189.512C30.944 189.512 31.536 189.368 32.048 189.08C32.56 188.792 32.96 188.355 33.248 187.768H35.44C35.024 188.835 34.352 189.656 33.424 190.232C32.5067 190.808 31.456 191.096 30.272 191.096C29.2267 191.096 28.272 190.856 27.408 190.376C26.544 189.885 25.856 189.208 25.344 188.344C24.8427 187.48 24.592 186.504 24.592 185.416ZM45.879 188.728H41.223L40.423 191H38.519L42.503 179.864H44.615L48.599 191H46.679L45.879 188.728ZM45.367 187.24L43.559 182.072L41.735 187.24H45.367ZM63.6433 179.88V191H61.8193V183.384L58.4273 191H57.1633L53.7553 183.384V191H51.9313V179.88H53.8993L57.8033 188.6L61.6913 179.88H63.6433ZM69.4646 181.352V184.616H73.3046V186.104H69.4646V189.512H73.7846V191H67.6406V179.864H73.7846V181.352H69.4646ZM83.4073 191L80.8473 186.552H79.4553V191H77.6313V179.88H81.4713C82.3246 179.88 83.0446 180.029 83.6313 180.328C84.2286 180.627 84.6713 181.027 84.9593 181.528C85.2579 182.029 85.4073 182.589 85.4073 183.208C85.4073 183.933 85.1939 184.595 84.7673 185.192C84.3513 185.779 83.7059 186.179 82.8313 186.392L85.5833 191H83.4073ZM79.4553 185.096H81.4713C82.1539 185.096 82.6659 184.925 83.0073 184.584C83.3593 184.243 83.5353 183.784 83.5353 183.208C83.5353 182.632 83.3646 182.184 83.0233 181.864C82.6819 181.533 82.1646 181.368 81.4713 181.368H79.4553V185.096ZM94.4126 191.112C93.378 191.112 92.4233 190.872 91.5486 190.392C90.6846 189.901 89.9966 189.224 89.4846 188.36C88.9833 187.485 88.7326 186.504 88.7326 185.416C88.7326 184.328 88.9833 183.352 89.4846 182.488C89.9966 181.624 90.6846 180.952 91.5486 180.472C92.4233 179.981 93.378 179.736 94.4126 179.736C95.458 179.736 96.4126 179.981 97.2766 180.472C98.1513 180.952 98.8393 181.624 99.3406 182.488C99.842 183.352 100.093 184.328 100.093 185.416C100.093 186.504 99.842 187.485 99.3406 188.36C98.8393 189.224 98.1513 189.901 97.2766 190.392C96.4126 190.872 95.458 191.112 94.4126 191.112ZM94.4126 189.528C95.1486 189.528 95.8046 189.363 96.3806 189.032C96.9566 188.691 97.4046 188.211 97.7246 187.592C98.0553 186.963 98.2206 186.237 98.2206 185.416C98.2206 184.595 98.0553 183.875 97.7246 183.256C97.4046 182.637 96.9566 182.163 96.3806 181.832C95.8046 181.501 95.1486 181.336 94.4126 181.336C93.6766 181.336 93.0206 181.501 92.4446 181.832C91.8686 182.163 91.4153 182.637 91.0846 183.256C90.7646 183.875 90.6046 184.595 90.6046 185.416C90.6046 186.237 90.7646 186.963 91.0846 187.592C91.4153 188.211 91.8686 188.691 92.4446 189.032C93.0206 189.363 93.6766 189.528 94.4126 189.528ZM112.623 191H110.799L105.311 182.696V191H103.487V179.864H105.311L110.799 188.152V179.864H112.623V191ZM136.855 179.88L133.559 191H131.495L129.159 182.584L126.679 191L124.631 191.016L121.479 179.88H123.415L125.719 188.936L128.215 179.88H130.263L132.583 188.888L134.903 179.88H136.855ZM141.783 179.88V191H139.959V179.88H141.783ZM147.602 189.528H151.362V191H145.778V179.88H147.602V189.528ZM156.312 189.528H160.072V191H154.488V179.88H156.312V189.528ZM165.021 179.88V191H163.197V179.88H165.021ZM175.72 188.728H171.064L170.264 191H168.36L172.344 179.864H174.456L178.44 191H176.52L175.72 188.728ZM175.208 187.24L173.4 182.072L171.576 187.24H175.208ZM193.484 179.88V191H191.66V183.384L188.268 191H187.004L183.596 183.384V191H181.772V179.88H183.74L187.644 188.6L191.532 179.88H193.484ZM201.145 191.112C200.399 191.112 199.727 190.984 199.129 190.728C198.532 190.461 198.063 190.088 197.721 189.608C197.38 189.128 197.209 188.568 197.209 187.928H199.161C199.204 188.408 199.391 188.803 199.721 189.112C200.063 189.421 200.537 189.576 201.145 189.576C201.775 189.576 202.265 189.427 202.617 189.128C202.969 188.819 203.145 188.424 203.145 187.944C203.145 187.571 203.033 187.267 202.809 187.032C202.596 186.797 202.324 186.616 201.993 186.488C201.673 186.36 201.225 186.221 200.649 186.072C199.924 185.88 199.332 185.688 198.873 185.496C198.425 185.293 198.041 184.984 197.721 184.568C197.401 184.152 197.241 183.597 197.241 182.904C197.241 182.264 197.401 181.704 197.721 181.224C198.041 180.744 198.489 180.376 199.065 180.12C199.641 179.864 200.308 179.736 201.065 179.736C202.143 179.736 203.023 180.008 203.705 180.552C204.399 181.085 204.783 181.821 204.857 182.76H202.841C202.809 182.355 202.617 182.008 202.265 181.72C201.913 181.432 201.449 181.288 200.873 181.288C200.351 181.288 199.924 181.421 199.593 181.688C199.263 181.955 199.097 182.339 199.097 182.84C199.097 183.181 199.199 183.464 199.401 183.688C199.615 183.901 199.881 184.072 200.201 184.2C200.521 184.328 200.959 184.467 201.513 184.616C202.249 184.819 202.847 185.021 203.305 185.224C203.775 185.427 204.169 185.741 204.489 186.168C204.82 186.584 204.985 187.144 204.985 187.848C204.985 188.413 204.831 188.947 204.521 189.448C204.223 189.949 203.78 190.355 203.193 190.664C202.617 190.963 201.935 191.112 201.145 191.112ZM213.81 191.112C212.775 191.112 211.82 190.872 210.946 190.392C210.082 189.901 209.394 189.224 208.882 188.36C208.38 187.485 208.13 186.504 208.13 185.416C208.13 184.328 208.38 183.352 208.882 182.488C209.394 181.624 210.082 180.952 210.946 180.472C211.82 179.981 212.775 179.736 213.81 179.736C214.855 179.736 215.81 179.981 216.674 180.472C217.548 180.952 218.236 181.624 218.738 182.488C219.239 183.352 219.49 184.328 219.49 185.416C219.49 186.504 219.239 187.485 218.738 188.36C218.236 189.224 217.548 189.901 216.674 190.392C215.81 190.872 214.855 191.112 213.81 191.112ZM213.81 189.528C214.546 189.528 215.202 189.363 215.778 189.032C216.354 188.691 216.802 188.211 217.122 187.592C217.452 186.963 217.618 186.237 217.618 185.416C217.618 184.595 217.452 183.875 217.122 183.256C216.802 182.637 216.354 182.163 215.778 181.832C215.202 181.501 214.546 181.336 213.81 181.336C213.074 181.336 212.418 181.501 211.842 181.832C211.266 182.163 210.812 182.637 210.482 183.256C210.162 183.875 210.002 184.595 210.002 185.416C210.002 186.237 210.162 186.963 210.482 187.592C210.812 188.211 211.266 188.691 211.842 189.032C212.418 189.363 213.074 189.528 213.81 189.528ZM232.02 191H230.196L224.708 182.696V191H222.884V179.864H224.708L230.196 188.152V179.864H232.02V191Z" fill="white"/>
<path d="M277.84 138.764C277.84 137.149 278.111 135.889 278.652 134.984C279.203 134.069 280.145 133.612 281.48 133.612C282.815 133.612 283.753 134.069 284.294 134.984C284.845 135.889 285.12 137.149 285.12 138.764C285.12 140.397 284.845 141.676 284.294 142.6C283.753 143.515 282.815 143.972 281.48 143.972C280.145 143.972 279.203 143.515 278.652 142.6C278.111 141.676 277.84 140.397 277.84 138.764ZM283.552 138.764C283.552 138.008 283.501 137.369 283.398 136.846C283.305 136.323 283.109 135.899 282.81 135.572C282.511 135.236 282.068 135.068 281.48 135.068C280.892 135.068 280.449 135.236 280.15 135.572C279.851 135.899 279.651 136.323 279.548 136.846C279.455 137.369 279.408 138.008 279.408 138.764C279.408 139.548 279.455 140.206 279.548 140.738C279.641 141.27 279.837 141.699 280.136 142.026C280.444 142.353 280.892 142.516 281.48 142.516C282.068 142.516 282.511 142.353 282.81 142.026C283.118 141.699 283.319 141.27 283.412 140.738C283.505 140.206 283.552 139.548 283.552 138.764ZM286.781 136.314C286.837 135.446 287.168 134.769 287.775 134.284C288.391 133.799 289.175 133.556 290.127 133.556C290.78 133.556 291.345 133.673 291.821 133.906C292.297 134.139 292.656 134.457 292.899 134.858C293.141 135.259 293.263 135.712 293.263 136.216C293.263 136.795 293.109 137.289 292.801 137.7C292.493 138.111 292.124 138.386 291.695 138.526V138.582C292.245 138.75 292.675 139.058 292.983 139.506C293.291 139.945 293.445 140.509 293.445 141.2C293.445 141.751 293.319 142.241 293.067 142.67C292.815 143.099 292.441 143.44 291.947 143.692C291.452 143.935 290.859 144.056 290.169 144.056C289.161 144.056 288.33 143.799 287.677 143.286C287.033 142.763 286.687 142.017 286.641 141.046H288.181C288.218 141.541 288.409 141.947 288.755 142.264C289.1 142.572 289.567 142.726 290.155 142.726C290.724 142.726 291.163 142.572 291.471 142.264C291.779 141.947 291.933 141.541 291.933 141.046C291.933 140.393 291.723 139.931 291.303 139.66C290.892 139.38 290.257 139.24 289.399 139.24H289.035V137.924H289.413C290.169 137.915 290.743 137.789 291.135 137.546C291.536 137.303 291.737 136.921 291.737 136.398C291.737 135.95 291.592 135.595 291.303 135.334C291.013 135.063 290.603 134.928 290.071 134.928C289.548 134.928 289.142 135.063 288.853 135.334C288.563 135.595 288.391 135.922 288.335 136.314H286.781ZM300.511 130.784L296.703 146.45H295.135L298.929 130.784H300.511ZM303.195 141.83C304.091 141.055 304.795 140.421 305.309 139.926C305.831 139.422 306.265 138.899 306.611 138.358C306.956 137.817 307.129 137.275 307.129 136.734C307.129 136.174 306.993 135.735 306.723 135.418C306.461 135.101 306.046 134.942 305.477 134.942C304.926 134.942 304.497 135.119 304.189 135.474C303.89 135.819 303.731 136.286 303.713 136.874H302.173C302.201 135.81 302.518 134.998 303.125 134.438C303.741 133.869 304.52 133.584 305.463 133.584C306.48 133.584 307.273 133.864 307.843 134.424C308.421 134.984 308.711 135.731 308.711 136.664C308.711 137.336 308.538 137.985 308.193 138.61C307.857 139.226 307.451 139.781 306.975 140.276C306.508 140.761 305.911 141.326 305.183 141.97L304.553 142.53H308.991V143.86H302.187V142.698L303.195 141.83ZM310.197 141.872V140.668L314.901 133.92H316.833V140.486H318.135V141.872H316.833V144H315.265V141.872H310.197ZM315.335 135.544L312.031 140.486H315.335V135.544Z" fill="white"/>
<path d="M254.224 133.424L252.12 139H251.28L249.176 133.424H249.952L251.704 138.232L253.456 133.424H254.224ZM258.318 137.76H255.886L255.438 139H254.67L256.686 133.456H257.526L259.534 139H258.766L258.318 137.76ZM258.11 137.168L257.102 134.352L256.094 137.168H258.11ZM261.141 138.408H263.093V139H260.413V133.424H261.141V138.408ZM264.594 133.424V139H263.866V133.424H264.594ZM267.571 133.424C268.179 133.424 268.704 133.539 269.147 133.768C269.595 133.992 269.936 134.315 270.171 134.736C270.411 135.157 270.531 135.653 270.531 136.224C270.531 136.795 270.411 137.291 270.171 137.712C269.936 138.128 269.595 138.448 269.147 138.672C268.704 138.891 268.179 139 267.571 139H265.835V133.424H267.571ZM267.571 138.4C268.291 138.4 268.84 138.211 269.219 137.832C269.597 137.448 269.787 136.912 269.787 136.224C269.787 135.531 269.595 134.989 269.211 134.6C268.832 134.211 268.285 134.016 267.571 134.016H266.563V138.4H267.571ZM253.048 141.424V142.016H251.528V147H250.8V142.016H249.272V141.424H253.048ZM258.24 141.424V147H257.512V144.472H254.672V147H253.944V141.424H254.672V143.872H257.512V141.424H258.24ZM262.419 147L261.091 144.72H260.211V147H259.483V141.424H261.283C261.705 141.424 262.059 141.496 262.347 141.64C262.641 141.784 262.859 141.979 263.003 142.224C263.147 142.469 263.219 142.749 263.219 143.064C263.219 143.448 263.107 143.787 262.883 144.08C262.665 144.373 262.334 144.568 261.891 144.664L263.291 147H262.419ZM260.211 144.136H261.283C261.678 144.136 261.974 144.04 262.171 143.848C262.369 143.651 262.467 143.389 262.467 143.064C262.467 142.733 262.369 142.477 262.171 142.296C261.979 142.115 261.683 142.024 261.283 142.024H260.211V144.136ZM265.062 141.424V144.952C265.062 145.448 265.182 145.816 265.422 146.056C265.668 146.296 266.006 146.416 266.438 146.416C266.865 146.416 267.198 146.296 267.438 146.056C267.684 145.816 267.806 145.448 267.806 144.952V141.424H268.534V144.944C268.534 145.408 268.441 145.8 268.254 146.12C268.068 146.435 267.814 146.669 267.494 146.824C267.18 146.979 266.825 147.056 266.43 147.056C266.036 147.056 265.678 146.979 265.358 146.824C265.044 146.669 264.793 146.435 264.606 146.12C264.425 145.8 264.334 145.408 264.334 144.944V141.424H265.062Z" fill="white"/>
<path d="M286.228 29.27C287.264 29.27 288.169 29.4707 288.944 29.872C289.728 30.264 290.33 30.8333 290.75 31.58C291.179 32.3173 291.394 33.1807 291.394 34.17C291.394 35.1593 291.179 36.018 290.75 36.746C290.33 37.474 289.728 38.034 288.944 38.426C288.169 38.8087 287.264 39 286.228 39H283.05V29.27H286.228ZM286.228 37.698C287.367 37.698 288.239 37.39 288.846 36.774C289.453 36.158 289.756 35.29 289.756 34.17C289.756 33.0407 289.453 32.1587 288.846 31.524C288.239 30.8893 287.367 30.572 286.228 30.572H284.646V37.698H286.228ZM300.046 34.954C300.046 35.2433 300.027 35.5047 299.99 35.738H294.096C294.142 36.354 294.371 36.8487 294.782 37.222C295.192 37.5953 295.696 37.782 296.294 37.782C297.152 37.782 297.759 37.4227 298.114 36.704H299.836C299.602 37.4133 299.178 37.9967 298.562 38.454C297.955 38.902 297.199 39.126 296.294 39.126C295.556 39.126 294.894 38.9627 294.306 38.636C293.727 38.3 293.27 37.8333 292.934 37.236C292.607 36.6293 292.444 35.9293 292.444 35.136C292.444 34.3427 292.602 33.6473 292.92 33.05C293.246 32.4433 293.699 31.9767 294.278 31.65C294.866 31.3233 295.538 31.16 296.294 31.16C297.022 31.16 297.67 31.3187 298.24 31.636C298.809 31.9533 299.252 32.4013 299.57 32.98C299.887 33.5493 300.046 34.2073 300.046 34.954ZM298.38 34.45C298.37 33.862 298.16 33.3907 297.75 33.036C297.339 32.6813 296.83 32.504 296.224 32.504C295.673 32.504 295.202 32.6813 294.81 33.036C294.418 33.3813 294.184 33.8527 294.11 34.45H298.38ZM303.212 32.434C303.483 32.0607 303.852 31.7573 304.318 31.524C304.794 31.2813 305.322 31.16 305.9 31.16C306.582 31.16 307.198 31.3233 307.748 31.65C308.299 31.9767 308.733 32.4433 309.05 33.05C309.368 33.6473 309.526 34.3333 309.526 35.108C309.526 35.8827 309.368 36.578 309.05 37.194C308.733 37.8007 308.294 38.2767 307.734 38.622C307.184 38.958 306.572 39.126 305.9 39.126C305.303 39.126 304.771 39.0093 304.304 38.776C303.847 38.5427 303.483 38.244 303.212 37.88V39H301.616V28.64H303.212V32.434ZM307.902 35.108C307.902 34.576 307.79 34.1187 307.566 33.736C307.352 33.344 307.062 33.05 306.698 32.854C306.344 32.6487 305.961 32.546 305.55 32.546C305.149 32.546 304.766 32.6487 304.402 32.854C304.048 33.0593 303.758 33.358 303.534 33.75C303.32 34.142 303.212 34.604 303.212 35.136C303.212 35.668 303.32 36.1347 303.534 36.536C303.758 36.928 304.048 37.2267 304.402 37.432C304.766 37.6373 305.149 37.74 305.55 37.74C305.961 37.74 306.344 37.6373 306.698 37.432C307.062 37.2173 307.352 36.9093 307.566 36.508C307.79 36.1067 307.902 35.64 307.902 35.108ZM311.917 30.264C311.627 30.264 311.385 30.166 311.189 29.97C310.993 29.774 310.895 29.5313 310.895 29.242C310.895 28.9527 310.993 28.71 311.189 28.514C311.385 28.318 311.627 28.22 311.917 28.22C312.197 28.22 312.435 28.318 312.631 28.514C312.827 28.71 312.925 28.9527 312.925 29.242C312.925 29.5313 312.827 29.774 312.631 29.97C312.435 30.166 312.197 30.264 311.917 30.264ZM312.701 31.286V39H311.105V31.286H312.701ZM316.658 32.588V36.858C316.658 37.1473 316.723 37.3573 316.854 37.488C316.994 37.6093 317.227 37.67 317.554 37.67H318.534V39H317.274C316.555 39 316.005 38.832 315.622 38.496C315.239 38.16 315.048 37.614 315.048 36.858V32.588H314.138V31.286H315.048V29.368H316.658V31.286H318.534V32.588H316.658Z" fill="white"/>
<circle cx="285" cy="180" r="14" fill="#E33A24"/>
<circle cx="305" cy="180" r="14" fill="#F8CB2E" fill-opacity="0.8"/>
<path d="M31.068 134.54C30.924 134.628 30.78 134.704 30.636 134.768C30.5 134.824 30.356 134.864 30.204 134.888C30.516 134.936 30.804 135.048 31.068 135.224L32.976 136.34L32.28 137.54L30.372 136.424C30.228 136.336 30.092 136.244 29.964 136.148C29.844 136.052 29.74 135.948 29.652 135.836C29.756 136.1 29.808 136.404 29.808 136.748V138.956H28.392V136.76C28.392 136.6 28.4 136.444 28.416 136.292C28.44 136.14 28.476 135.996 28.524 135.86C28.436 135.972 28.332 136.072 28.212 136.16C28.092 136.248 27.964 136.336 27.828 136.424L25.932 137.528L25.224 136.328L27.132 135.224C27.436 135.048 27.724 134.936 27.996 134.888C27.716 134.84 27.428 134.724 27.132 134.54L25.224 133.424L25.92 132.224L27.828 133.352C27.972 133.44 28.104 133.532 28.224 133.628C28.344 133.716 28.452 133.816 28.548 133.928C28.444 133.664 28.392 133.364 28.392 133.028V130.808H29.808V133.004C29.808 133.172 29.796 133.332 29.772 133.484C29.756 133.636 29.72 133.78 29.664 133.916C29.76 133.804 29.868 133.704 29.988 133.616C30.108 133.528 30.236 133.44 30.372 133.352L32.268 132.248L32.976 133.448L31.068 134.54ZM41.7433 134.54C41.5993 134.628 41.4553 134.704 41.3113 134.768C41.1753 134.824 41.0313 134.864 40.8793 134.888C41.1913 134.936 41.4793 135.048 41.7433 135.224L43.6513 136.34L42.9553 137.54L41.0473 136.424C40.9033 136.336 40.7673 136.244 40.6393 136.148C40.5193 136.052 40.4153 135.948 40.3273 135.836C40.4313 136.1 40.4833 136.404 40.4833 136.748V138.956H39.0673V136.76C39.0673 136.6 39.0753 136.444 39.0913 136.292C39.1153 136.14 39.1513 135.996 39.1993 135.86C39.1113 135.972 39.0073 136.072 38.8873 136.16C38.7673 136.248 38.6393 136.336 38.5033 136.424L36.6073 137.528L35.8993 136.328L37.8073 135.224C38.1113 135.048 38.3993 134.936 38.6713 134.888C38.3913 134.84 38.1033 134.724 37.8073 134.54L35.8993 133.424L36.5953 132.224L38.5033 133.352C38.6473 133.44 38.7793 133.532 38.8993 133.628C39.0193 133.716 39.1273 133.816 39.2233 133.928C39.1193 133.664 39.0673 133.364 39.0673 133.028V130.808H40.4833V133.004C40.4833 133.172 40.4713 133.332 40.4473 133.484C40.4313 133.636 40.3953 133.78 40.3393 133.916C40.4353 133.804 40.5433 133.704 40.6633 133.616C40.7833 133.528 40.9113 133.44 41.0473 133.352L42.9433 132.248L43.6513 133.448L41.7433 134.54ZM52.4186 134.54C52.2746 134.628 52.1306 134.704 51.9866 134.768C51.8506 134.824 51.7066 134.864 51.5546 134.888C51.8666 134.936 52.1546 135.048 52.4186 135.224L54.3266 136.34L53.6306 137.54L51.7226 136.424C51.5786 136.336 51.4426 136.244 51.3146 136.148C51.1946 136.052 51.0906 135.948 51.0026 135.836C51.1066 136.1 51.1586 136.404 51.1586 136.748V138.956H49.7426V136.76C49.7426 136.6 49.7506 136.444 49.7666 136.292C49.7906 136.14 49.8266 135.996 49.8746 135.86C49.7866 135.972 49.6826 136.072 49.5626 136.16C49.4426 136.248 49.3146 136.336 49.1786 136.424L47.2826 137.528L46.5746 136.328L48.4826 135.224C48.7866 135.048 49.0746 134.936 49.3466 134.888C49.0666 134.84 48.7786 134.724 48.4826 134.54L46.5746 133.424L47.2706 132.224L49.1786 133.352C49.3226 133.44 49.4546 133.532 49.5746 133.628C49.6946 133.716 49.8026 133.816 49.8986 133.928C49.7946 133.664 49.7426 133.364 49.7426 133.028V130.808H51.1586V133.004C51.1586 133.172 51.1466 133.332 51.1226 133.484C51.1066 133.636 51.0706 133.78 51.0146 133.916C51.1106 133.804 51.2186 133.704 51.3386 133.616C51.4586 133.528 51.5866 133.44 51.7226 133.352L53.6186 132.248L54.3266 133.448L52.4186 134.54ZM63.0939 134.54C62.9499 134.628 62.8059 134.704 62.6619 134.768C62.5259 134.824 62.3819 134.864 62.2299 134.888C62.5419 134.936 62.8299 135.048 63.0939 135.224L65.0019 136.34L64.3059 137.54L62.3979 136.424C62.2539 136.336 62.1179 136.244 61.9899 136.148C61.8699 136.052 61.7659 135.948 61.6779 135.836C61.7819 136.1 61.8339 136.404 61.8339 136.748V138.956H60.4179V136.76C60.4179 136.6 60.4259 136.444 60.4419 136.292C60.4659 136.14 60.5019 135.996 60.5499 135.86C60.4619 135.972 60.3579 136.072 60.2379 136.16C60.1179 136.248 59.9899 136.336 59.8539 136.424L57.9579 137.528L57.2499 136.328L59.1579 135.224C59.4619 135.048 59.7499 134.936 60.0219 134.888C59.7419 134.84 59.4539 134.724 59.1579 134.54L57.2499 133.424L57.9459 132.224L59.8539 133.352C59.9979 133.44 60.1299 133.532 60.2499 133.628C60.3699 133.716 60.4779 133.816 60.5739 133.928C60.4699 133.664 60.4179 133.364 60.4179 133.028V130.808H61.8339V133.004C61.8339 133.172 61.8219 133.332 61.7979 133.484C61.7819 133.636 61.7459 133.78 61.6899 133.916C61.7859 133.804 61.8939 133.704 62.0139 133.616C62.1339 133.528 62.2619 133.44 62.3979 133.352L64.2939 132.248L65.0019 133.448L63.0939 134.54ZM80.0852 134.54C79.9412 134.628 79.7972 134.704 79.6532 134.768C79.5172 134.824 79.3732 134.864 79.2212 134.888C79.5332 134.936 79.8212 135.048 80.0852 135.224L81.9932 136.34L81.2972 137.54L79.3892 136.424C79.2452 136.336 79.1092 136.244 78.9812 136.148C78.8612 136.052 78.7572 135.948 78.6692 135.836C78.7732 136.1 78.8252 136.404 78.8252 136.748V138.956H77.4092V136.76C77.4092 136.6 77.4172 136.444 77.4332 136.292C77.4572 136.14 77.4932 135.996 77.5412 135.86C77.4532 135.972 77.3492 136.072 77.2292 136.16C77.1092 136.248 76.9812 136.336 76.8452 136.424L74.9492 137.528L74.2412 136.328L76.1492 135.224C76.4532 135.048 76.7412 134.936 77.0132 134.888C76.7332 134.84 76.4452 134.724 76.1492 134.54L74.2412 133.424L74.9372 132.224L76.8452 133.352C76.9892 133.44 77.1212 133.532 77.2412 133.628C77.3612 133.716 77.4692 133.816 77.5652 133.928C77.4612 133.664 77.4092 133.364 77.4092 133.028V130.808H78.8252V133.004C78.8252 133.172 78.8132 133.332 78.7892 133.484C78.7732 133.636 78.7372 133.78 78.6812 133.916C78.7772 133.804 78.8852 133.704 79.0052 133.616C79.1252 133.528 79.2532 133.44 79.3892 133.352L81.2852 132.248L81.9932 133.448L80.0852 134.54ZM90.7605 134.54C90.6165 134.628 90.4725 134.704 90.3285 134.768C90.1925 134.824 90.0485 134.864 89.8965 134.888C90.2085 134.936 90.4965 135.048 90.7605 135.224L92.6685 136.34L91.9725 137.54L90.0645 136.424C89.9205 136.336 89.7845 136.244 89.6565 136.148C89.5365 136.052 89.4325 135.948 89.3445 135.836C89.4485 136.1 89.5005 136.404 89.5005 136.748V138.956H88.0845V136.76C88.0845 136.6 88.0925 136.444 88.1085 136.292C88.1325 136.14 88.1685 135.996 88.2165 135.86C88.1285 135.972 88.0245 136.072 87.9045 136.16C87.7845 136.248 87.6565 136.336 87.5205 136.424L85.6245 137.528L84.9165 136.328L86.8245 135.224C87.1285 135.048 87.4165 134.936 87.6885 134.888C87.4085 134.84 87.1205 134.724 86.8245 134.54L84.9165 133.424L85.6125 132.224L87.5205 133.352C87.6645 133.44 87.7965 133.532 87.9165 133.628C88.0365 133.716 88.1445 133.816 88.2405 133.928C88.1365 133.664 88.0845 133.364 88.0845 133.028V130.808H89.5005V133.004C89.5005 133.172 89.4885 133.332 89.4645 133.484C89.4485 133.636 89.4125 133.78 89.3565 133.916C89.4525 133.804 89.5605 133.704 89.6805 133.616C89.8005 133.528 89.9285 133.44 90.0645 133.352L91.9605 132.248L92.6685 133.448L90.7605 134.54ZM101.436 134.54C101.292 134.628 101.148 134.704 101.004 134.768C100.868 134.824 100.724 134.864 100.572 134.888C100.884 134.936 101.172 135.048 101.436 135.224L103.344 136.34L102.648 137.54L100.74 136.424C100.596 136.336 100.46 136.244 100.332 136.148C100.212 136.052 100.108 135.948 100.02 135.836C100.124 136.1 100.176 136.404 100.176 136.748V138.956H98.7598V136.76C98.7598 136.6 98.7678 136.444 98.7838 136.292C98.8078 136.14 98.8438 135.996 98.8918 135.86C98.8038 135.972 98.6998 136.072 98.5798 136.16C98.4598 136.248 98.3318 136.336 98.1958 136.424L96.2998 137.528L95.5918 136.328L97.4998 135.224C97.8038 135.048 98.0918 134.936 98.3638 134.888C98.0838 134.84 97.7958 134.724 97.4998 134.54L95.5918 133.424L96.2878 132.224L98.1958 133.352C98.3398 133.44 98.4718 133.532 98.5918 133.628C98.7118 133.716 98.8198 133.816 98.9158 133.928C98.8118 133.664 98.7598 133.364 98.7598 133.028V130.808H100.176V133.004C100.176 133.172 100.164 133.332 100.14 133.484C100.124 133.636 100.088 133.78 100.032 133.916C100.128 133.804 100.236 133.704 100.356 133.616C100.476 133.528 100.604 133.44 100.74 133.352L102.636 132.248L103.344 133.448L101.436 134.54ZM112.111 134.54C111.967 134.628 111.823 134.704 111.679 134.768C111.543 134.824 111.399 134.864 111.247 134.888C111.559 134.936 111.847 135.048 112.111 135.224L114.019 136.34L113.323 137.54L111.415 136.424C111.271 136.336 111.135 136.244 111.007 136.148C110.887 136.052 110.783 135.948 110.695 135.836C110.799 136.1 110.851 136.404 110.851 136.748V138.956H109.435V136.76C109.435 136.6 109.443 136.444 109.459 136.292C109.483 136.14 109.519 135.996 109.567 135.86C109.479 135.972 109.375 136.072 109.255 136.16C109.135 136.248 109.007 136.336 108.871 136.424L106.975 137.528L106.267 136.328L108.175 135.224C108.479 135.048 108.767 134.936 109.039 134.888C108.759 134.84 108.471 134.724 108.175 134.54L106.267 133.424L106.963 132.224L108.871 133.352C109.015 133.44 109.147 133.532 109.267 133.628C109.387 133.716 109.495 133.816 109.591 133.928C109.487 133.664 109.435 133.364 109.435 133.028V130.808H110.851V133.004C110.851 133.172 110.839 133.332 110.815 133.484C110.799 133.636 110.763 133.78 110.707 133.916C110.803 133.804 110.911 133.704 111.031 133.616C111.151 133.528 111.279 133.44 111.415 133.352L113.311 132.248L114.019 133.448L112.111 134.54ZM129.102 134.54C128.958 134.628 128.814 134.704 128.67 134.768C128.534 134.824 128.39 134.864 128.238 134.888C128.55 134.936 128.838 135.048 129.102 135.224L131.01 136.34L130.314 137.54L128.406 136.424C128.262 136.336 128.126 136.244 127.998 136.148C127.878 136.052 127.774 135.948 127.686 135.836C127.79 136.1 127.842 136.404 127.842 136.748V138.956H126.426V136.76C126.426 136.6 126.434 136.444 126.45 136.292C126.474 136.14 126.51 135.996 126.558 135.86C126.47 135.972 126.366 136.072 126.246 136.16C126.126 136.248 125.998 136.336 125.862 136.424L123.966 137.528L123.258 136.328L125.166 135.224C125.47 135.048 125.758 134.936 126.03 134.888C125.75 134.84 125.462 134.724 125.166 134.54L123.258 133.424L123.954 132.224L125.862 133.352C126.006 133.44 126.138 133.532 126.258 133.628C126.378 133.716 126.486 133.816 126.582 133.928C126.478 133.664 126.426 133.364 126.426 133.028V130.808H127.842V133.004C127.842 133.172 127.83 133.332 127.806 133.484C127.79 133.636 127.754 133.78 127.698 133.916C127.794 133.804 127.902 133.704 128.022 133.616C128.142 133.528 128.27 133.44 128.406 133.352L130.302 132.248L131.01 133.448L129.102 134.54ZM139.778 134.54C139.634 134.628 139.49 134.704 139.346 134.768C139.21 134.824 139.066 134.864 138.914 134.888C139.226 134.936 139.514 135.048 139.778 135.224L141.686 136.34L140.99 137.54L139.082 136.424C138.938 136.336 138.802 136.244 138.674 136.148C138.554 136.052 138.45 135.948 138.362 135.836C138.466 136.1 138.518 136.404 138.518 136.748V138.956H137.102V136.76C137.102 136.6 137.11 136.444 137.126 136.292C137.15 136.14 137.186 135.996 137.234 135.86C137.146 135.972 137.042 136.072 136.922 136.16C136.802 136.248 136.674 136.336 136.538 136.424L134.642 137.528L133.934 136.328L135.842 135.224C136.146 135.048 136.434 134.936 136.706 134.888C136.426 134.84 136.138 134.724 135.842 134.54L133.934 133.424L134.63 132.224L136.538 133.352C136.682 133.44 136.814 133.532 136.934 133.628C137.054 133.716 137.162 133.816 137.258 133.928C137.154 133.664 137.102 133.364 137.102 133.028V130.808H138.518V133.004C138.518 133.172 138.506 133.332 138.482 133.484C138.466 133.636 138.43 133.78 138.374 133.916C138.47 133.804 138.578 133.704 138.698 133.616C138.818 133.528 138.946 133.44 139.082 133.352L140.978 132.248L141.686 133.448L139.778 134.54ZM150.453 134.54C150.309 134.628 150.165 134.704 150.021 134.768C149.885 134.824 149.741 134.864 149.589 134.888C149.901 134.936 150.189 135.048 150.453 135.224L152.361 136.34L151.665 137.54L149.757 136.424C149.613 136.336 149.477 136.244 149.349 136.148C149.229 136.052 149.125 135.948 149.037 135.836C149.141 136.1 149.193 136.404 149.193 136.748V138.956H147.777V136.76C147.777 136.6 147.785 136.444 147.801 136.292C147.825 136.14 147.861 135.996 147.909 135.86C147.821 135.972 147.717 136.072 147.597 136.16C147.477 136.248 147.349 136.336 147.213 136.424L145.317 137.528L144.609 136.328L146.517 135.224C146.821 135.048 147.109 134.936 147.381 134.888C147.101 134.84 146.813 134.724 146.517 134.54L144.609 133.424L145.305 132.224L147.213 133.352C147.357 133.44 147.489 133.532 147.609 133.628C147.729 133.716 147.837 133.816 147.933 133.928C147.829 133.664 147.777 133.364 147.777 133.028V130.808H149.193V133.004C149.193 133.172 149.181 133.332 149.157 133.484C149.141 133.636 149.105 133.78 149.049 133.916C149.145 133.804 149.253 133.704 149.373 133.616C149.493 133.528 149.621 133.44 149.757 133.352L151.653 132.248L152.361 133.448L150.453 134.54ZM161.128 134.54C160.984 134.628 160.84 134.704 160.696 134.768C160.56 134.824 160.416 134.864 160.264 134.888C160.576 134.936 160.864 135.048 161.128 135.224L163.036 136.34L162.34 137.54L160.432 136.424C160.288 136.336 160.152 136.244 160.024 136.148C159.904 136.052 159.8 135.948 159.712 135.836C159.816 136.1 159.868 136.404 159.868 136.748V138.956H158.452V136.76C158.452 136.6 158.46 136.444 158.476 136.292C158.5 136.14 158.536 135.996 158.584 135.86C158.496 135.972 158.392 136.072 158.272 136.16C158.152 136.248 158.024 136.336 157.888 136.424L155.992 137.528L155.284 136.328L157.192 135.224C157.496 135.048 157.784 134.936 158.056 134.888C157.776 134.84 157.488 134.724 157.192 134.54L155.284 133.424L155.98 132.224L157.888 133.352C158.032 133.44 158.164 133.532 158.284 133.628C158.404 133.716 158.512 133.816 158.608 133.928C158.504 133.664 158.452 133.364 158.452 133.028V130.808H159.868V133.004C159.868 133.172 159.856 133.332 159.832 133.484C159.816 133.636 159.78 133.78 159.724 133.916C159.82 133.804 159.928 133.704 160.048 133.616C160.168 133.528 160.296 133.44 160.432 133.352L162.328 132.248L163.036 133.448L161.128 134.54ZM184.372 140.324C184.372 141.836 184.208 143.152 183.88 144.272C183.56 145.384 183.112 146.304 182.536 147.032C181.968 147.76 181.292 148.304 180.508 148.664C179.732 149.016 178.892 149.192 177.988 149.192C177.084 149.192 176.244 149.016 175.468 148.664C174.7 148.304 174.032 147.76 173.464 147.032C172.896 146.304 172.452 145.384 172.132 144.272C171.812 143.152 171.652 141.836 171.652 140.324C171.652 138.804 171.812 137.488 172.132 136.376C172.452 135.264 172.896 134.344 173.464 133.616C174.032 132.888 174.7 132.348 175.468 131.996C176.244 131.636 177.084 131.456 177.988 131.456C178.892 131.456 179.732 131.636 180.508 131.996C181.292 132.348 181.968 132.888 182.536 133.616C183.112 134.344 183.56 135.264 183.88 136.376C184.208 137.488 184.372 138.804 184.372 140.324ZM181.312 140.324C181.312 139.068 181.22 138.028 181.036 137.204C180.852 136.38 180.604 135.724 180.292 135.236C179.988 134.748 179.636 134.408 179.236 134.216C178.836 134.016 178.42 133.916 177.988 133.916C177.564 133.916 177.152 134.016 176.752 134.216C176.36 134.408 176.012 134.748 175.708 135.236C175.404 135.724 175.16 136.38 174.976 137.204C174.8 138.028 174.712 139.068 174.712 140.324C174.712 141.58 174.8 142.62 174.976 143.444C175.16 144.268 175.404 144.924 175.708 145.412C176.012 145.9 176.36 146.244 176.752 146.444C177.152 146.636 177.564 146.732 177.988 146.732C178.42 146.732 178.836 146.636 179.236 146.444C179.636 146.244 179.988 145.9 180.292 145.412C180.604 144.924 180.852 144.268 181.036 143.444C181.22 142.62 181.312 141.58 181.312 140.324ZM186.749 136.484C186.869 135.652 187.101 134.924 187.445 134.3C187.789 133.668 188.217 133.144 188.729 132.728C189.249 132.304 189.841 131.988 190.505 131.78C191.177 131.564 191.897 131.456 192.665 131.456C193.465 131.456 194.185 131.572 194.825 131.804C195.473 132.028 196.025 132.344 196.481 132.752C196.937 133.152 197.285 133.624 197.525 134.168C197.773 134.712 197.897 135.3 197.897 135.932C197.897 136.484 197.833 136.972 197.705 137.396C197.585 137.812 197.409 138.176 197.177 138.488C196.945 138.8 196.657 139.064 196.313 139.28C195.969 139.496 195.581 139.676 195.149 139.82C196.189 140.148 196.965 140.648 197.477 141.32C197.989 141.992 198.245 142.836 198.245 143.852C198.245 144.716 198.085 145.48 197.765 146.144C197.445 146.808 197.013 147.368 196.469 147.824C195.925 148.272 195.293 148.612 194.573 148.844C193.861 149.076 193.105 149.192 192.305 149.192C191.433 149.192 190.673 149.092 190.025 148.892C189.377 148.692 188.813 148.396 188.333 148.004C187.853 147.612 187.445 147.132 187.109 146.564C186.773 145.996 186.485 145.34 186.245 144.596L187.553 144.056C187.897 143.912 188.217 143.876 188.513 143.948C188.817 144.012 189.037 144.172 189.173 144.428C189.317 144.708 189.473 144.984 189.641 145.256C189.817 145.528 190.025 145.772 190.265 145.988C190.505 146.196 190.785 146.368 191.105 146.504C191.433 146.632 191.821 146.696 192.269 146.696C192.773 146.696 193.213 146.616 193.589 146.456C193.965 146.288 194.277 146.072 194.525 145.808C194.781 145.544 194.969 145.252 195.089 144.932C195.217 144.604 195.281 144.276 195.281 143.948C195.281 143.532 195.237 143.156 195.149 142.82C195.061 142.476 194.877 142.184 194.597 141.944C194.317 141.704 193.913 141.516 193.385 141.38C192.865 141.244 192.165 141.176 191.285 141.176V139.064C192.013 139.056 192.617 138.988 193.097 138.86C193.577 138.732 193.957 138.556 194.237 138.332C194.525 138.1 194.725 137.824 194.837 137.504C194.949 137.184 195.005 136.832 195.005 136.448C195.005 135.632 194.777 135.012 194.321 134.588C193.865 134.164 193.257 133.952 192.497 133.952C192.145 133.952 191.821 134.004 191.525 134.108C191.229 134.204 190.961 134.344 190.721 134.528C190.489 134.704 190.293 134.912 190.133 135.152C189.973 135.392 189.853 135.656 189.773 135.944C189.637 136.312 189.457 136.556 189.233 136.676C189.017 136.796 188.709 136.824 188.309 136.76L186.749 136.484ZM211.627 146.24C211.947 146.24 212.199 146.332 212.383 146.516C212.575 146.692 212.671 146.928 212.671 147.224V149H200.767V148.016C200.767 147.816 200.807 147.608 200.887 147.392C200.975 147.168 201.111 146.968 201.295 146.792L206.563 141.512C207.003 141.064 207.395 140.636 207.739 140.228C208.091 139.82 208.383 139.416 208.615 139.016C208.847 138.616 209.023 138.212 209.143 137.804C209.271 137.388 209.335 136.952 209.335 136.496C209.335 136.08 209.275 135.716 209.155 135.404C209.035 135.084 208.863 134.816 208.639 134.6C208.423 134.384 208.159 134.224 207.847 134.12C207.543 134.008 207.199 133.952 206.815 133.952C206.463 133.952 206.135 134.004 205.831 134.108C205.535 134.204 205.271 134.344 205.039 134.528C204.807 134.704 204.611 134.912 204.451 135.152C204.291 135.392 204.171 135.656 204.091 135.944C203.955 136.312 203.779 136.556 203.563 136.676C203.347 136.796 203.035 136.824 202.627 136.76L201.067 136.484C201.187 135.652 201.419 134.924 201.763 134.3C202.107 133.668 202.535 133.144 203.047 132.728C203.567 132.304 204.159 131.988 204.823 131.78C205.495 131.564 206.215 131.456 206.983 131.456C207.783 131.456 208.515 131.576 209.179 131.816C209.843 132.048 210.411 132.38 210.883 132.812C211.355 133.244 211.723 133.764 211.987 134.372C212.251 134.98 212.383 135.656 212.383 136.4C212.383 137.04 212.287 137.632 212.095 138.176C211.911 138.72 211.659 139.24 211.339 139.736C211.027 140.232 210.659 140.712 210.235 141.176C209.811 141.64 209.367 142.112 208.903 142.592L204.991 146.588C205.367 146.476 205.739 146.392 206.107 146.336C206.483 146.272 206.839 146.24 207.175 146.24H211.627ZM218.217 136.856C218.217 137.824 218.465 138.564 218.961 139.076C219.465 139.58 220.177 139.832 221.097 139.832C221.577 139.832 222.005 139.756 222.381 139.604C222.757 139.452 223.073 139.244 223.329 138.98C223.585 138.716 223.777 138.404 223.905 138.044C224.041 137.684 224.109 137.296 224.109 136.88C224.109 136.408 224.037 135.988 223.893 135.62C223.749 135.244 223.545 134.928 223.281 134.672C223.017 134.416 222.701 134.22 222.333 134.084C221.973 133.948 221.577 133.88 221.145 133.88C220.697 133.88 220.293 133.956 219.933 134.108C219.573 134.252 219.265 134.456 219.009 134.72C218.753 134.984 218.557 135.3 218.421 135.668C218.285 136.028 218.217 136.424 218.217 136.856ZM222.153 142.268C222.289 142.1 222.417 141.936 222.537 141.776C222.657 141.616 222.773 141.456 222.885 141.296C222.485 141.552 222.045 141.748 221.565 141.884C221.085 142.012 220.581 142.076 220.053 142.076C219.453 142.076 218.865 141.972 218.289 141.764C217.713 141.556 217.201 141.244 216.753 140.828C216.305 140.404 215.941 139.884 215.661 139.268C215.389 138.644 215.253 137.916 215.253 137.084C215.253 136.308 215.397 135.58 215.685 134.9C215.973 134.22 216.377 133.624 216.897 133.112C217.417 132.6 218.041 132.196 218.769 131.9C219.497 131.604 220.301 131.456 221.181 131.456C222.069 131.456 222.865 131.596 223.569 131.876C224.281 132.156 224.885 132.548 225.381 133.052C225.885 133.556 226.269 134.16 226.533 134.864C226.805 135.568 226.941 136.34 226.941 137.18C226.941 137.716 226.893 138.224 226.797 138.704C226.709 139.184 226.581 139.648 226.413 140.096C226.245 140.536 226.041 140.968 225.801 141.392C225.561 141.816 225.293 142.236 224.997 142.652L221.025 148.316C220.889 148.508 220.685 148.672 220.413 148.808C220.141 148.936 219.833 149 219.489 149H216.765L222.153 142.268Z" fill="#FDFDFD"/>
</g>
<defs>
<clipPath id="clip0_504_947">
<rect width="343" height="218" rx="16" fill="white"/>
</clipPath>
</defs>
</svg>
