<svg width="25" height="26" viewBox="0 0 25 26" fill="none" xmlns="http://www.w3.org/2000/svg">
<path d="M2.08325 3.625L2.3592 3.71698C3.73424 4.17533 4.42176 4.4045 4.81501 4.9501C5.20825 5.4957 5.20825 6.22041 5.20825 7.66983V10.3958C5.20825 13.3421 5.20825 14.8153 6.12354 15.7305C7.03883 16.6458 8.51197 16.6458 11.4583 16.6458H19.7916" stroke="#0C2F54" stroke-width="1.5" stroke-linecap="round"/>
<path d="M7.8125 19.25C8.67544 19.25 9.375 19.9496 9.375 20.8125C9.375 21.6754 8.67544 22.375 7.8125 22.375C6.94955 22.375 6.25 21.6754 6.25 20.8125C6.25 19.9496 6.94955 19.25 7.8125 19.25Z" stroke="#0C2F54" stroke-width="1.5"/>
<path d="M17.1875 19.2501C18.0504 19.2501 18.75 19.9496 18.75 20.8126C18.75 21.6755 18.0504 22.3751 17.1875 22.3751C16.3246 22.3751 15.625 21.6755 15.625 20.8126C15.625 19.9496 16.3246 19.2501 17.1875 19.2501Z" stroke="#0C2F54" stroke-width="1.5"/>
<path d="M11.4583 9.875H8.33325" stroke="#0C2F54" stroke-width="1.5" stroke-linecap="round"/>
<path d="M5.20825 6.75H17.1357C19.2763 6.75 20.3466 6.75 20.8098 7.45236C21.2729 8.15472 20.8513 9.13848 20.0081 11.106L19.5616 12.1477C19.168 13.0663 18.9711 13.5255 18.5798 13.7836C18.1884 14.0417 17.6887 14.0417 16.6893 14.0417H5.20825" stroke="#0C2F54" stroke-width="1.5"/>
</svg>
