<svg width="16" height="26" viewBox="0 0 16 26" fill="none" xmlns="http://www.w3.org/2000/svg">
<path d="M0.916992 17.25H3.75033C3.75033 18.78 5.69116 20.0833 8.00033 20.0833C10.3095 20.0833 12.2503 18.78 12.2503 17.25C12.2503 15.6917 10.777 15.125 7.66033 14.3742C4.65699 13.6233 0.916992 12.6883 0.916992 8.75C0.916992 6.21417 2.99949 4.06083 5.87533 3.33833V0.25H10.1253V3.33833C13.0012 4.06083 15.0837 6.21417 15.0837 8.75H12.2503C12.2503 7.22 10.3095 5.91667 8.00033 5.91667C5.69116 5.91667 3.75033 7.22 3.75033 8.75C3.75033 10.3083 5.22366 10.875 8.34033 11.6258C11.3437 12.3767 15.0837 13.3117 15.0837 17.25C15.0837 19.7858 13.0012 21.9392 10.1253 22.6617V25.75H5.87533V22.6617C2.99949 21.9392 0.916992 19.7858 0.916992 17.25Z" fill="#0C2F54"/>
</svg>
