<svg width="22" height="12" viewBox="0 0 22 12" fill="none" xmlns="http://www.w3.org/2000/svg">
<path fill-rule="evenodd" clip-rule="evenodd" d="M21.2954 0.310833C21.6761 0.474 21.8524 0.914909 21.6893 1.29563L20.9999 1.00019C21.6893 1.29563 21.6894 1.29546 21.6893 1.29563L21.6886 1.29731L21.6875 1.2998L21.6843 1.30716L21.6736 1.33123C21.6646 1.35137 21.6518 1.37958 21.6352 1.41527C21.6019 1.48662 21.5533 1.58794 21.4888 1.71435C21.3599 1.967 21.1675 2.32087 20.9084 2.73666C20.4828 3.4197 19.8724 4.27785 19.0619 5.13037L20.0303 6.0987C20.3231 6.39159 20.3231 6.86647 20.0303 7.15936C19.7374 7.45225 19.2625 7.45225 18.9696 7.15936L17.969 6.15878C17.3093 6.71147 16.5528 7.23022 15.695 7.65642L16.6286 9.09115C16.8545 9.43834 16.7562 9.90292 16.409 10.1288C16.0618 10.3547 15.5972 10.2564 15.3713 9.90923L14.2821 8.23534C13.5028 8.48985 12.659 8.66281 11.7499 8.72481V10.5002C11.7499 10.9144 11.4141 11.2502 10.9999 11.2502C10.5857 11.2502 10.2499 10.9144 10.2499 10.5002V8.72481C9.36889 8.66472 8.54909 8.5004 7.78982 8.25859L6.71575 9.9093C6.48984 10.2565 6.02526 10.3548 5.67807 10.1289C5.33089 9.90299 5.23257 9.43841 5.45847 9.09122L6.37089 7.68896C5.5065 7.26685 4.74381 6.75036 4.07842 6.19845L3.11744 7.15943C2.82455 7.45232 2.34968 7.45232 2.05678 7.15943C1.76389 6.86654 1.76389 6.39166 2.05678 6.09877L2.98055 5.17501C2.15599 4.31532 1.53525 3.44675 1.10277 2.75486C0.839844 2.33423 0.644595 1.97584 0.513882 1.71988C0.448481 1.59182 0.399104 1.48914 0.36537 1.41683C0.3485 1.38067 0.33553 1.35207 0.326415 1.33167L0.315621 1.30729L0.312378 1.29984L0.311293 1.29733L0.310885 1.29638C0.310808 1.2962 0.310565 1.29563 0.999924 1.00019L0.310885 1.29638C0.147718 0.915654 0.323762 0.474 0.704484 0.310834C1.08489 0.147801 1.52539 0.32374 1.68888 0.703813C1.68882 0.703682 1.68894 0.703944 1.68888 0.703813L1.68983 0.706004L1.69591 0.719718C1.7018 0.732913 1.7114 0.7541 1.72472 0.782672C1.75139 0.839831 1.79296 0.926442 1.84976 1.03767C1.96345 1.26029 2.13762 1.58046 2.37472 1.95979C2.85033 2.72067 3.57157 3.70728 4.55561 4.62178C5.42151 5.4265 6.48259 6.16775 7.75165 6.656C8.70614 7.02322 9.78537 7.25019 10.9999 7.25019C12.2416 7.25019 13.342 7.01295 14.3124 6.63101C15.5738 6.13452 16.6277 5.38844 17.4866 4.58218C18.4562 3.67216 19.1668 2.69535 19.6354 1.9434C19.869 1.5685 20.0405 1.25246 20.1525 1.03286C20.2085 0.923146 20.2494 0.837761 20.2757 0.781438C20.2888 0.753284 20.2983 0.732418 20.3041 0.719433L20.31 0.70595L20.3106 0.704753C20.3105 0.704851 20.3106 0.704655 20.3106 0.704753M21.2954 0.310833C20.9147 0.147709 20.4738 0.324234 20.3106 0.704753L21.2954 0.310833ZM1.68888 0.703813C1.68882 0.703682 1.68894 0.703944 1.68888 0.703813V0.703813Z" fill="#5A5A5A"/>
</svg>
