<svg width="66" height="65" viewBox="0 0 66 65" fill="none" xmlns="http://www.w3.org/2000/svg">
<g clip-path="url(#clip0_213_611)">
<path d="M60.7831 29.3723L59.0998 22.6393C59.5601 22.5415 59.9054 22.1333 59.9054 21.6441V20.5585C59.9054 18.2015 57.9877 16.284 55.6309 16.284H47.9639V14.0448C47.9639 12.885 47.0204 11.9415 45.8605 11.9415H6.77904C5.61919 11.9415 4.67568 12.885 4.67568 14.0448V32.5C4.67568 33.062 5.13131 33.5178 5.69346 33.5178C6.25548 33.5178 6.71125 33.0622 6.71125 32.5V14.0448C6.71125 14.0074 6.74159 13.977 6.77904 13.977H45.8604C45.8979 13.977 45.9282 14.0074 45.9282 14.0448V32.5003C45.9282 33.0623 46.3838 33.518 46.946 33.518C47.508 33.518 47.9638 33.0624 47.9638 32.5003V31.3465H59.9696C59.9706 31.3465 59.9714 31.3468 59.9723 31.3468C59.9733 31.3468 59.9742 31.3466 59.9751 31.3466C61.4524 31.3476 62.7068 32.3173 63.1377 33.6535H59.973C59.411 33.6535 58.9552 34.1091 58.9552 34.6713V36.8424C58.9552 38.6009 60.3858 40.0314 62.1442 40.0314H63.2977V44.5094H60.6365C59.7623 41.9852 57.3627 40.167 54.545 40.167C51.7273 40.167 49.3276 41.9852 48.4536 44.5094H47.9635V36.8423C47.9635 36.2803 47.5079 35.8245 46.9457 35.8245C46.3837 35.8245 45.928 36.2802 45.928 36.8423V44.5091H24.8121C23.9379 41.9849 21.5384 40.1667 18.7206 40.1667C15.9029 40.1667 13.5032 41.9849 12.6292 44.5091H6.77904C6.74159 44.5091 6.71125 44.4788 6.71125 44.4413V42.2023H11.1215C11.6835 42.2023 12.1393 41.7466 12.1393 41.1845C12.1393 40.6223 11.6836 40.1667 11.1215 40.1667H1.35116C0.789136 40.1667 0.333374 40.6223 0.333374 41.1845C0.333374 41.7466 0.789009 42.2023 1.35116 42.2023H4.67581V44.4413C4.67581 45.6012 5.61932 46.5447 6.77916 46.5447H12.2767C12.2765 46.5673 12.275 46.5898 12.275 46.6125C12.275 50.1667 15.1666 53.0582 18.7206 53.0582C22.2747 53.0582 25.1663 50.1667 25.1663 46.6125C25.1663 46.5896 25.1648 46.5673 25.1645 46.5447H48.1011C48.1009 46.5673 48.0994 46.5898 48.0994 46.6125C48.0994 50.1667 50.991 53.0582 54.545 53.0582C58.0991 53.0582 60.9907 50.1667 60.9907 46.6125C60.9907 46.5896 60.9892 46.5673 60.9889 46.5447H64.3155C64.8775 46.5447 65.3332 46.0891 65.3332 45.5269V34.671C65.3334 31.9908 63.3558 29.7639 60.7831 29.3723ZM47.9639 18.3195H55.6309C56.8655 18.3195 57.8699 19.3239 57.8699 20.5585V20.6263H47.9639V18.3195ZM47.9639 29.3111V22.6618H57.0074L58.6697 29.3111H47.9639ZM18.7206 51.023C16.2888 51.023 14.3104 49.0447 14.3104 46.6128C14.3104 44.1808 16.2888 42.2025 18.7206 42.2025C21.1524 42.2025 23.1309 44.1808 23.1309 46.6128C23.1309 49.0447 21.1524 51.023 18.7206 51.023ZM54.5453 51.023C52.1135 51.023 50.1351 49.0447 50.1351 46.6128C50.1351 44.1808 52.1135 42.2025 54.5453 42.2025C56.9771 42.2025 58.9555 44.1808 58.9555 46.6128C58.9555 49.0447 56.9771 51.023 54.5453 51.023ZM63.2979 37.9958H62.1444C61.5084 37.9958 60.9909 37.4783 60.9909 36.8423V35.6888H63.2978V37.9958H63.2979Z" fill="#A6A6A6"/>
<path d="M18.7206 44.5094C17.5608 44.5094 16.6172 45.4529 16.6172 46.6128C16.6172 47.7726 17.5608 48.7161 18.7206 48.7161C19.8805 48.7161 20.824 47.7726 20.824 46.6128C20.824 45.4529 19.8805 44.5094 18.7206 44.5094Z" fill="#A6A6A6"/>
<path d="M54.5453 44.5094C53.3854 44.5094 52.4419 45.4529 52.4419 46.6128C52.4419 47.7726 53.3854 48.7161 54.5453 48.7161C55.7051 48.7161 56.6486 47.7726 56.6486 46.6128C56.6486 45.4529 55.7051 44.5094 54.5453 44.5094Z" fill="#A6A6A6"/>
<path d="M42.6037 40.1671H27.4054C26.8433 40.1671 26.3876 40.6227 26.3876 41.1849C26.3876 41.747 26.8432 42.2026 27.4054 42.2026H42.6037C43.1657 42.2026 43.6215 41.747 43.6215 41.1849C43.6215 40.6227 43.1658 40.1671 42.6037 40.1671Z" fill="#A6A6A6"/>
<path d="M16.5495 35.8246H3.5223C2.96028 35.8246 2.50452 36.2803 2.50452 36.8424C2.50452 37.4046 2.96015 37.8602 3.5223 37.8602H16.5495C17.1115 37.8602 17.5673 37.4046 17.5673 36.8424C17.5673 36.2803 17.1115 35.8246 16.5495 35.8246Z" fill="#A6A6A6"/>
<path d="M35.7242 22.0099C35.3269 21.6125 34.6823 21.6125 34.285 22.01L25.2342 31.0606L20.5259 26.3523C20.1284 25.9548 19.484 25.9548 19.0866 26.3523C18.6891 26.7498 18.6891 27.3941 19.0866 27.7916L24.5146 33.2196C24.7133 33.4184 24.9738 33.5177 25.2342 33.5177C25.4946 33.5177 25.7552 33.4184 25.9538 33.2196L35.7241 23.4493C36.1216 23.0516 36.1216 22.4073 35.7242 22.0099Z" fill="#A6A6A6"/>
</g>
<defs>
<clipPath id="clip0_213_611">
<rect width="65" height="65" fill="white" transform="translate(0.333374)"/>
</clipPath>
</defs>
</svg>
