<svg width="60" height="60" viewBox="0 0 60 60" fill="none" xmlns="http://www.w3.org/2000/svg">
<path d="M42.0251 11.9624H5.94982C5.39646 11.9624 4.94775 12.4111 4.94775 12.9645V34.0083H7.95396C9.0608 34.0083 9.95811 34.9055 9.95811 36.0124C9.95811 37.1193 9.06068 38.0166 7.95396 38.0166H4.94775V41.0228C4.94775 41.5762 5.39646 42.0249 5.94982 42.0249H43.0271V12.9645C43.0271 12.4111 42.5784 11.9624 42.0251 11.9624Z" fill="#B4E66E"/>
<path d="M55.0522 27.9958H43.0271V42.0251H59.0605V32.0041C59.0605 29.7905 57.2658 27.9958 55.0522 27.9958Z" fill="#FFDC64"/>
<path d="M43.0271 31.0022H53.8831C54.9901 31.0022 55.8873 31.8994 55.8873 33.0063V42.0251H43.0271V31.0022Z" fill="#FFC850"/>
<path d="M51.0438 15.9709H43.0271V19.9793H54.0501V18.9773C54.0501 17.3168 52.7041 15.9709 51.0438 15.9709Z" fill="#FFDC64"/>
<path d="M55.0522 27.9959L53.0479 19.9792H43.0271V27.9959H55.0522Z" fill="#B4E6FF"/>
<path d="M55.0522 32.0042H59.0606V36.0126H57.0565C55.9496 36.0126 55.0524 35.1154 55.0524 34.0084V32.0042H55.0522Z" fill="#F1F4FB"/>
<path d="M50.0417 35.0105C47.0216 35.0105 44.394 36.6822 43.0271 39.1492V42.0251H57.9891C57.495 38.0716 54.1291 35.0105 50.0417 35.0105Z" fill="#E1A546"/>
<path d="M55.8872 37.5483V42.0251H57.9892C57.774 40.3038 57.0138 38.7523 55.8872 37.5483Z" fill="#FFC850"/>
<path d="M50.0417 48.0378C52.8089 48.0378 55.0522 45.7945 55.0522 43.0273C55.0522 40.2601 52.8089 38.0168 50.0417 38.0168C47.2745 38.0168 45.0312 40.2601 45.0312 43.0273C45.0312 45.7945 47.2745 48.0378 50.0417 48.0378Z" fill="#5B5D6E"/>
<path d="M47.0356 22.9855H53.7997L53.0482 19.9792H43.0273V27.9959H46.0336V23.9875C46.0334 23.4342 46.4821 22.9855 47.0356 22.9855Z" fill="#9BD6FF"/>
<path d="M16.9728 35.0105C14.4424 35.0105 12.1894 36.1857 10.7203 38.0167H7.95408H4.94775V41.0229C4.94775 41.5763 5.39646 42.025 5.94982 42.025H43.0271V38.0166H23.2254C21.7563 36.1857 19.5033 35.0105 16.9728 35.0105Z" fill="#A0D755"/>
<path d="M16.9729 48.0378C19.7401 48.0378 21.9833 45.7945 21.9833 43.0273C21.9833 40.2601 19.7401 38.0168 16.9729 38.0168C14.2057 38.0168 11.9624 40.2601 11.9624 43.0273C11.9624 45.7945 14.2057 48.0378 16.9729 48.0378Z" fill="#5B5D6E"/>
<path d="M55.7998 27.1129L54.246 20.8979C54.6708 20.8076 54.9895 20.4308 54.9895 19.9792V18.9772C54.9895 16.8015 53.2194 15.0315 51.0438 15.0315H43.9666V12.9645C43.9666 11.8939 43.0957 11.0229 42.0251 11.0229H5.94984C4.87922 11.0229 4.00828 11.8939 4.00828 12.9645V30.0001C4.00828 30.5188 4.42887 30.9396 4.94777 30.9396C5.46668 30.9396 5.88727 30.519 5.88727 30.0001V12.9645C5.88727 12.9299 5.91527 12.9019 5.94984 12.9019H42.025C42.0595 12.9019 42.0875 12.9299 42.0875 12.9645V30.0003C42.0875 30.5191 42.5081 30.9398 43.027 30.9398C43.5458 30.9398 43.9665 30.5192 43.9665 30.0003V28.9353H55.0488C55.0496 28.9353 55.0505 28.9355 55.0513 28.9355C55.0521 28.9355 55.053 28.9354 55.0539 28.9354C56.4176 28.9362 57.5755 29.8314 57.9732 31.0648H55.052C54.5332 31.0648 54.1125 31.4854 54.1125 32.0043V34.0085C54.1125 35.6316 55.433 36.9521 57.0561 36.9521H58.1209V41.0856H55.6644C54.8575 38.7557 52.6425 37.0772 50.0415 37.0772C47.4405 37.0772 45.2255 38.7556 44.4186 41.0856H43.9663V34.0085C43.9663 33.4897 43.5457 33.069 43.0268 33.069C42.508 33.069 42.0873 33.4895 42.0873 34.0085V41.0855H22.5957C21.7888 38.7555 19.5738 37.0771 16.9729 37.0771C14.3719 37.0771 12.1568 38.7555 11.35 41.0855H5.94984C5.91527 41.0855 5.88727 41.0575 5.88727 41.0229V38.9561H9.95824C10.477 38.9561 10.8977 38.5355 10.8977 38.0166C10.8977 37.4978 10.4771 37.0771 9.95824 37.0771H0.939492C0.420703 37.0771 0 37.4977 0 38.0166C0 38.5354 0.420586 38.9561 0.939492 38.9561H4.0084V41.0229C4.0084 42.0936 4.87934 42.9645 5.94996 42.9645H11.0246C11.0244 42.9854 11.023 43.0061 11.023 43.0271C11.023 46.3079 13.6922 48.9769 16.9729 48.9769C20.2535 48.9769 22.9227 46.3079 22.9227 43.0271C22.9227 43.006 22.9213 42.9854 22.9211 42.9645H44.0933C44.0931 42.9854 44.0917 43.0061 44.0917 43.0271C44.0917 46.3079 46.7609 48.9769 50.0415 48.9769C53.3222 48.9769 55.9914 46.3079 55.9914 43.0271C55.9914 43.006 55.99 42.9854 55.9897 42.9645H59.0604C59.5792 42.9645 59.9999 42.5439 59.9999 42.025V32.0041C60 29.5301 58.1746 27.4744 55.7998 27.1129ZM43.9666 20.9186H52.3145L53.8489 27.0564H43.9666V20.9186ZM51.0438 16.9103C52.1835 16.9103 53.1107 17.8375 53.1107 18.9772V19.0397H43.9666V16.9103H51.0438ZM16.9729 47.0982C14.7281 47.0982 12.9019 45.2721 12.9019 43.0272C12.9019 40.7824 14.7281 38.9562 16.9729 38.9562C19.2176 38.9562 21.0438 40.7824 21.0438 43.0272C21.0438 45.2721 19.2176 47.0982 16.9729 47.0982ZM50.0418 47.0982C47.797 47.0982 45.9708 45.2721 45.9708 43.0272C45.9708 40.7824 47.797 38.9562 50.0418 38.9562C52.2865 38.9562 54.1127 40.7824 54.1127 43.0272C54.1127 45.2721 52.2865 47.0982 50.0418 47.0982ZM57.0564 35.0731C56.4693 35.0731 55.9916 34.5955 55.9916 34.0083V32.9436H58.121V35.073H57.0564V35.0731Z" fill="black"/>
<path d="M16.9728 41.0857C15.9022 41.0857 15.0312 41.9566 15.0312 43.0273C15.0312 44.0979 15.9022 44.9688 16.9728 44.9688C18.0434 44.9688 18.9144 44.0979 18.9144 43.0273C18.9144 41.9566 18.0434 41.0857 16.9728 41.0857Z" fill="black"/>
<path d="M50.0417 41.0857C48.971 41.0857 48.1001 41.9566 48.1001 43.0273C48.1001 44.0979 48.971 44.9688 50.0417 44.9688C51.1123 44.9688 51.9832 44.0979 51.9832 43.0273C51.9832 41.9566 51.1123 41.0857 50.0417 41.0857Z" fill="black"/>
<path d="M24.05 38.0166C24.05 38.5354 24.4706 38.9561 24.9895 38.9561H39.0186C39.5374 38.9561 39.9581 38.5355 39.9581 38.0166C39.9581 37.4979 39.5375 37.0771 39.0186 37.0771H24.9894C24.4706 37.0771 24.05 37.4979 24.05 38.0166Z" fill="black"/>
<path d="M2.94364 34.9478H14.9687C15.4875 34.9478 15.9082 34.5272 15.9082 34.0083C15.9082 33.4896 15.4876 33.0688 14.9687 33.0688H2.94364C2.42485 33.0688 2.00415 33.4894 2.00415 34.0083C2.00415 34.5272 2.42485 34.9478 2.94364 34.9478Z" fill="black"/>
<path d="M31.3398 20.3171L22.9853 28.6715L18.6391 24.3254C18.2722 23.9585 17.6774 23.9585 17.3106 24.3254C16.9437 24.6923 16.9437 25.287 17.3106 25.6539L22.3211 30.6644C22.5045 30.8479 22.7449 30.9396 22.9853 30.9396C23.2256 30.9396 23.4661 30.8479 23.6495 30.6644L32.6682 21.6456C33.0352 21.2787 33.0352 20.684 32.6682 20.3171C32.3016 19.9503 31.7066 19.9503 31.3398 20.3171Z" fill="black"/>
</svg>
