<svg width="30" height="30" viewBox="0 0 30 30" fill="none" xmlns="http://www.w3.org/2000/svg">
<path d="M23.358 22.6358C22.9897 21.5025 21.9272 20.6667 20.6663 20.6667H19.2497V16.4167C19.2497 16.0409 19.1004 15.6806 18.8347 15.4149C18.5691 15.1493 18.2087 15 17.833 15H9.33301V12.1667H12.1663C12.5421 12.1667 12.9024 12.0174 13.1681 11.7517C13.4338 11.4861 13.583 11.1257 13.583 10.75V7.91666H16.4163C17.1678 7.91666 17.8885 7.61815 18.4198 7.0868C18.9512 6.55544 19.2497 5.83477 19.2497 5.08333V4.5025C23.4005 6.17416 26.333 10.24 26.333 15C26.333 17.9467 25.1997 20.6242 23.358 22.6358ZM13.583 26.2342C7.98717 25.54 3.66634 20.78 3.66634 15C3.66634 14.1217 3.77967 13.2717 3.96384 12.4642L10.7497 19.25V20.6667C10.7497 21.4181 11.0482 22.1388 11.5795 22.6701C12.1109 23.2015 12.8316 23.5 13.583 23.5V26.2342ZM14.9997 0.833328C13.1393 0.833328 11.2971 1.19976 9.57833 1.9117C7.85955 2.62364 6.29782 3.66715 4.98233 4.98265C2.32556 7.63941 0.833008 11.2428 0.833008 15C0.833008 18.7572 2.32556 22.3606 4.98233 25.0173C6.29782 26.3328 7.85955 27.3763 9.57833 28.0883C11.2971 28.8002 13.1393 29.1667 14.9997 29.1667C18.7569 29.1667 22.3603 27.6741 25.017 25.0173C27.6738 22.3606 29.1663 18.7572 29.1663 15C29.1663 13.1396 28.7999 11.2974 28.088 9.57865C27.376 7.85987 26.3325 6.29815 25.017 4.98265C23.7015 3.66715 22.1398 2.62364 20.421 1.9117C18.7022 1.19976 16.8601 0.833328 14.9997 0.833328Z" fill="#0C2F54"/>
</svg>
