<svg width="65" height="65" viewBox="0 0 65 65" fill="none" xmlns="http://www.w3.org/2000/svg">
<g clip-path="url(#clip0_213_603)">
<path d="M8.13481 56.0614C9.46271 61.3478 14.2338 65.0403 19.6842 65H45.3159C50.767 65.04 55.5383 61.3465 56.8653 56.0592C59.2898 46.1218 53.1668 33.6342 46.2291 24.6859C47.524 24.2433 48.4693 23.1227 48.6872 21.7717C50.7034 22.0753 52.4069 23.4265 53.1614 25.3207C53.3846 25.876 54.0156 26.1451 54.5708 25.922C55.126 25.6988 55.3952 25.0678 55.1721 24.5126C54.1837 22.0207 51.99 20.2071 49.3567 19.7047C51.6138 18.2074 53.0034 15.7074 53.0834 13C53.0834 12.4017 52.5984 11.9166 52.0001 11.9166C51.4017 11.9166 50.9167 12.4017 50.9167 13C50.7898 15.2507 49.5091 17.2762 47.5302 18.356C46.8338 17.7011 45.9144 17.3355 44.9584 17.3333H44.2239L47.5736 12.0748C48.4228 10.739 48.4761 9.04648 47.7126 7.65989C46.9492 6.27331 45.4904 5.41331 43.9076 5.41664H42.6498C42.9874 4.11943 42.7048 2.73898 41.8845 1.67887C41.0641 0.618763 39.7988 -0.00129412 38.4584 -2.85841e-05H26.5417C25.2013 -0.00129412 23.936 0.618763 23.1157 1.67887C22.2953 2.73898 22.0127 4.11943 22.3503 5.41664H21.0926C19.5095 5.41346 18.0507 6.27376 17.2875 7.66063C16.5242 9.0475 16.5779 10.7402 17.4276 12.0759L20.7762 17.3333H20.0417C18.1982 17.33 16.6207 18.6561 16.3071 20.4728C15.9936 22.2895 17.0352 24.0677 18.7731 24.6826C11.8344 33.6331 5.70923 46.1207 8.13481 56.0614ZM19.1848 8.70997C19.5633 8.01034 20.2972 7.57692 21.0926 7.58331H23.2018L26.0835 14.5004C26.2325 14.8576 26.5608 15.1082 26.9446 15.1578C27.3285 15.2074 27.7097 15.0484 27.9446 14.7407C28.1794 14.4331 28.2323 14.0235 28.0833 13.6662L24.5419 5.16639C24.2634 4.49774 24.3374 3.73414 24.7392 3.13145C25.141 2.52877 25.8174 2.16673 26.5417 2.16664H38.4584C39.1827 2.16673 39.8591 2.52877 40.2609 3.13145C40.6627 3.73414 40.7367 4.49774 40.4582 5.16639L36.9168 13.6662C36.6865 14.2185 36.9474 14.8529 37.4996 15.0832C38.0519 15.3136 38.6863 15.0526 38.9166 14.5004L41.7983 7.58331H43.9076C44.7005 7.57846 45.4328 8.00721 45.8167 8.70111C46.2006 9.39501 46.1747 10.2432 45.7492 10.9124L41.6553 17.3333H23.347L19.2574 10.9135C18.8273 10.249 18.7993 9.4013 19.1848 8.70997ZM21.3515 24.9166H24.9167C25.515 24.9166 26.0001 24.4316 26.0001 23.8333C26.0001 23.235 25.515 22.75 24.9167 22.75H20.0417C19.1443 22.75 18.4167 22.0224 18.4167 21.125C18.4167 20.2275 19.1443 19.5 20.0417 19.5H44.9584C45.8559 19.5 46.5834 20.2275 46.5834 21.125C46.5834 22.0224 45.8559 22.75 44.9584 22.75H31.4167C30.8184 22.75 30.3334 23.235 30.3334 23.8333C30.3334 24.4316 30.8184 24.9166 31.4167 24.9166H43.6454C50.6123 33.5161 57.1036 45.9474 54.7615 55.5436C53.6702 59.8606 49.7685 62.8717 45.3159 62.8333H19.6842C15.2322 62.8726 11.3307 59.8622 10.2397 55.5457C7.89756 45.9474 14.3878 33.5161 21.3547 24.9166H21.3515Z" fill="#A6A6A6"/>
<path d="M16.2501 44.4167H19.5001V53.0833C19.5001 53.6816 19.9851 54.1667 20.5834 54.1667C21.1817 54.1667 21.6667 53.6816 21.6667 53.0833V44.4167H24.9167C25.5151 44.4167 26.0001 43.9316 26.0001 43.3333C26.0001 42.735 25.5151 42.25 24.9167 42.25H16.2501C15.6518 42.25 15.1667 42.735 15.1667 43.3333C15.1667 43.9316 15.6518 44.4167 16.2501 44.4167Z" fill="#A6A6A6"/>
<path d="M40.5655 53.9847C40.8045 54.1442 41.0971 54.2021 41.3789 54.1459C41.6607 54.0896 41.9086 53.9236 42.068 53.6846L44.4167 50.1583L46.7654 53.6813C47.0974 54.1791 47.7702 54.3135 48.268 53.9814C48.7658 53.6493 48.9001 52.9766 48.568 52.4788L45.7167 48.2083L48.5659 43.9346C48.7807 43.6126 48.8074 43.2004 48.6359 42.8534C48.4644 42.5063 48.1209 42.2771 47.7346 42.2521C47.3483 42.2271 46.978 42.4101 46.7632 42.7321L44.4167 46.2583L42.068 42.7353C41.736 42.2375 41.0633 42.1032 40.5655 42.4352C40.0677 42.7673 39.9333 43.44 40.2654 43.9378L43.1167 48.2083L40.2675 52.4821C39.935 52.9793 40.0684 53.6519 40.5655 53.9847Z" fill="#A6A6A6"/>
<path d="M27.7269 54.0735C27.9895 54.1902 28.2877 54.1978 28.5559 54.0946C28.8241 53.9913 29.0403 53.7858 29.1569 53.5232L30.315 50.9167H34.6852L35.8433 53.5232C36.0004 53.8769 36.3343 54.12 36.7192 54.1608C37.1042 54.2016 37.4816 54.0339 37.7094 53.7209C37.9372 53.408 37.9807 52.9973 37.8236 52.6435L36.3936 49.4271L36.3795 49.3957L33.4903 42.8957C33.3165 42.5042 32.9284 42.2519 32.5001 42.2519C32.0718 42.2519 31.6837 42.5042 31.5099 42.8957L28.6207 49.3957L28.6066 49.4271L27.1766 52.6435C27.0599 52.9061 27.0523 53.2043 27.1555 53.4725C27.2588 53.7407 27.4643 53.9569 27.7269 54.0735ZM32.5001 46.0005L33.7221 48.75H31.2781L32.5001 46.0005Z" fill="#A6A6A6"/>
</g>
<defs>
<clipPath id="clip0_213_603">
<rect width="65" height="65" fill="white"/>
</clipPath>
</defs>
</svg>
