<svg width="204" height="54" viewBox="0 0 204 54" fill="none" xmlns="http://www.w3.org/2000/svg">
<g clip-path="url(#clip0_61_278)">
<path d="M-7.2632e-05 0.443031H9.70761V53.6486H-0.00415039L-7.2632e-05 0.443031ZM69.9488 0.329107H105.688V8.15499C105.705 8.97953 105.45 9.77877 104.977 10.3784C104.503 10.978 103.851 11.3293 103.163 11.3557H92.6785V53.6242H82.9599V11.3606H72.4607C71.7746 11.3292 71.1265 10.9748 70.6574 10.3745C70.1883 9.77429 69.9361 8.97664 69.9556 8.15499L69.9488 0.329107ZM63.3528 44.7514C63.4009 44.1563 63.4168 43.5581 63.4004 42.9606L63.4358 0.412128H53.7444L53.7186 39.5271C53.7186 39.5271 53.7186 39.9439 53.3908 39.8787C53.3085 39.836 53.2385 39.7652 53.1895 39.6752L34.6691 5.99948C33.9768 4.88102 33.6314 4.30146 33.3471 3.88306L33.3213 3.84237C32.5058 2.60789 31.461 1.61811 30.27 0.95169C29.079 0.285268 27.7745 -0.0394494 26.4602 0.00338243C25.146 0.0462143 23.8582 0.455407 22.6992 1.19842C21.5403 1.94143 20.542 2.99779 19.7838 4.28356C18.5473 6.47623 17.9057 9.07205 17.9465 11.7171V11.7562C17.9465 11.919 17.9383 12.0672 17.9465 12.1713L17.9873 53.6583H27.714L27.6705 15.7807L27.661 14.6411C27.6705 14.1006 28.0867 14.1689 28.1764 14.3936C28.2376 14.5238 47.0804 48.5561 47.0804 48.5561C47.177 48.7189 48.0555 50.1109 48.1888 50.3469L48.3914 50.6286C49.2149 51.6916 50.2123 52.5405 51.3215 53.1225C52.4307 53.7045 53.6281 54.0072 54.8392 54.0116H55.1316C56.6904 53.9717 58.2092 53.4138 59.5186 52.4005C60.8279 51.3871 61.8761 49.958 62.5463 48.2728C62.9961 47.1687 63.2701 45.974 63.3542 44.7498L63.3528 44.7514ZM158.561 42.2085L159.434 42.0896H159.503C160.378 42.1027 161.247 41.9273 162.07 41.5719C163.876 40.6309 164.591 39.9634 167.386 35.6117C167.752 35.037 168.212 34.2344 168.664 33.461C169.884 31.2486 171.239 29.1471 172.717 27.1736L172.853 27.0108L172.717 26.8366C171.235 24.869 169.88 22.7693 168.664 20.5557L168.643 20.5101C168.202 19.7449 167.737 18.9488 167.386 18.3937C164.578 14.0468 163.874 13.3875 162.07 12.44C161.419 12.1548 160.736 11.9869 160.043 11.9418H159.478V11.9222L159.469 11.9418L158.561 11.9646V0.825643L159.328 0.786542H159.509C161.659 0.77813 163.79 1.26968 165.784 2.23387C169.562 4.1875 171.42 6.39511 174.782 11.6162C175.288 12.3993 175.798 13.2816 176.333 14.2031L176.355 14.2471C177.205 15.7785 178.125 17.2525 179.111 18.6623L179.157 18.7274C179.457 19.1343 179.826 19.4607 180.239 19.6853C180.652 19.9099 181.101 20.0276 181.554 20.0309C182.008 20.0341 182.457 19.9227 182.872 19.704C183.288 19.4853 183.66 19.1642 183.964 18.7616C184.955 17.3371 185.881 15.8508 186.74 14.3089C187.296 13.3533 187.812 12.4563 188.303 11.6732C191.666 6.46349 193.535 4.26401 197.313 2.30223C199.303 1.33513 201.433 0.842406 203.581 0.851677H203.782L203.999 0.887499V12.046L203.695 11.9744H203.616C202.735 11.9627 201.86 12.1431 201.032 12.5067C199.229 13.4412 198.515 14.1119 195.713 18.4571C195.346 19.0302 194.862 19.867 194.442 20.6045C193.235 22.7941 191.896 24.8753 190.435 26.8317L190.299 27.0059L190.435 27.1687C191.896 29.1214 193.232 31.203 194.432 33.3959C194.896 34.1822 195.358 34.9816 195.712 35.5449C198.514 39.8934 199.228 40.5576 201.031 41.4921C201.858 41.8574 202.734 42.0378 203.615 42.0245H203.674L203.999 41.917V53.095L203.581 53.1504C201.433 53.1558 199.304 52.6633 197.313 51.6998C193.535 49.7462 191.674 47.5418 188.303 42.3289C187.786 41.523 187.264 40.6065 186.758 39.7241C185.9 38.1841 184.973 36.7009 183.981 35.2812C183.684 34.8724 183.318 34.5436 182.907 34.3164C182.496 34.0893 182.05 33.969 181.597 33.9635C181.145 33.958 180.697 34.0673 180.282 34.2843C179.867 34.5014 179.496 34.8211 179.192 35.2226C178.177 36.6739 177.23 38.1914 176.355 39.768L176.333 39.8022C175.796 40.7253 175.288 41.6028 174.782 42.3957C171.42 47.6053 169.562 49.8129 165.784 51.7763C163.793 52.742 161.664 53.2347 159.516 53.2269C159.457 53.2269 159.324 53.2172 159.324 53.2172L158.561 53.3344V42.2085ZM133.37 53.38C131.431 53.3861 129.495 53.2414 127.572 52.9469C126.819 52.8411 125.378 52.4585 125.216 52.4048L124.38 52.1736L124.27 52.141C119.477 50.8632 115.18 47.7012 112.063 43.1592C108.649 38.1878 106.903 31.8738 107.164 25.4463C107.426 19.0188 109.675 12.9375 113.476 8.38617C117.054 4.09439 121.757 1.40846 126.795 0.780034L128.104 0.643305L128.784 0.631878H139.203C139.426 0.643274 139.82 0.66118 140.006 0.680716C143.036 0.918863 145.878 2.52521 147.956 5.17503C150.035 7.82485 151.195 11.3205 151.203 14.9553C151.211 18.5901 150.066 22.093 147.999 24.7558C145.932 27.4186 143.098 29.0427 140.069 29.2998H138.336C138.298 29.2964 138.259 29.2964 138.221 29.2998H127.484L122.452 29.2656L122.415 29.1273C122.196 27.8476 121.347 21.3974 126.552 19.0009C127.369 18.6708 128.225 18.5003 129.087 18.4962H139.18C139.503 18.4829 139.82 18.3911 140.113 18.2262C140.405 18.0614 140.667 17.8269 140.881 17.5373C141.147 17.1873 141.349 16.7751 141.475 16.3268C141.601 15.8784 141.648 15.4037 141.613 14.9325C141.594 14.1764 141.334 13.4576 140.887 12.9234C140.439 12.3891 139.838 12.0799 139.207 12.059H128.777L128.736 12.0688C125.755 12.1473 122.899 13.5203 120.7 15.9322C118.502 18.3441 117.11 21.6304 116.785 25.1791C116.46 28.7277 117.224 32.2967 118.934 35.2215C120.644 38.1462 123.184 40.2272 126.08 41.077C128.455 41.8817 130.909 42.3049 133.378 42.3354C138.351 42.5146 143.276 41.134 147.666 38.3305C148.545 37.7476 151.15 35.8884 151.15 35.8884L151.1 48.0596L149.159 49.1992C144.21 51.9383 138.824 53.364 133.371 53.3783L133.37 53.38Z" fill="#FF0001"/>
</g>
<defs>
<clipPath id="clip0_61_278">
<rect width="204" height="54" fill="white"/>
</clipPath>
</defs>
</svg>
