<svg width="23" height="21" viewBox="0 0 23 21" fill="none" xmlns="http://www.w3.org/2000/svg">
<path fill-rule="evenodd" clip-rule="evenodd" d="M4.85862 2.60856C3.13051 3.39849 1.8645 5.27735 1.8645 7.51784C1.8645 9.8068 2.80119 11.5711 4.14397 13.0831C5.25067 14.3293 6.59037 15.3621 7.89692 16.3694C8.20725 16.6087 8.5157 16.8465 8.81872 17.0853C9.36667 17.5173 9.85546 17.8964 10.3266 18.1717C10.798 18.4472 11.1774 18.5729 11.4999 18.5729C11.8224 18.5729 12.2019 18.4472 12.6732 18.1717C13.1444 17.8964 13.6332 17.5173 14.1811 17.0853C14.4841 16.8465 14.7926 16.6087 15.1029 16.3694C16.4095 15.3621 17.7492 14.3293 18.8559 13.0831C20.1986 11.5711 21.1353 9.8068 21.1353 7.51784C21.1353 5.27735 19.8693 3.39849 18.1412 2.60856C16.4623 1.84115 14.2065 2.04438 12.0628 4.27163C11.9155 4.42464 11.7123 4.51111 11.4999 4.51111C11.2875 4.51111 11.0843 4.42464 10.937 4.27163C8.79332 2.04438 6.53749 1.84115 4.85862 2.60856ZM11.4999 2.64463C9.09153 0.489865 6.39467 0.188435 4.20905 1.18749C1.90066 2.24266 0.302002 4.69277 0.302002 7.51784C0.302002 10.2944 1.45877 12.4126 2.97567 14.1207C4.19041 15.4885 5.67723 16.6333 6.99036 17.6444C7.28803 17.8736 7.57677 18.0959 7.8514 18.3124C8.38498 18.733 8.95778 19.1816 9.53827 19.5208C10.1185 19.8598 10.7808 20.1354 11.4999 20.1354C12.2191 20.1354 12.8813 19.8598 13.4616 19.5208C14.0421 19.1816 14.6149 18.733 15.1484 18.3124C15.4231 18.0959 15.7118 17.8736 16.0095 17.6444C17.3226 16.6333 18.8094 15.4885 20.0242 14.1207C21.5411 12.4126 22.6978 10.2944 22.6978 7.51784C22.6978 4.69277 21.0992 2.24266 18.7908 1.18749C16.6052 0.188435 13.9083 0.489865 11.4999 2.64463Z" fill="#0C2F54"/>
</svg>
