<svg width="22" height="23" viewBox="0 0 22 23" fill="none" xmlns="http://www.w3.org/2000/svg">
<path d="M18.3333 6L2.75001 6" stroke="#0C2F54" stroke-width="1.5" stroke-linecap="round"/>
<path d="M9.16666 15.1667H2.74999" stroke="#0C2F54" stroke-width="1.5" stroke-linecap="round"/>
<path d="M8.25 10.5833H2.75" stroke="#0C2F54" stroke-width="1.5" stroke-linecap="round"/>
<path d="M15.1159 15.4492L15.5608 14.8455L15.5608 14.8455L15.1159 15.4492ZM16.0417 9.76396L15.5058 10.2887C15.6468 10.4328 15.84 10.514 16.0417 10.514C16.2433 10.514 16.4365 10.4328 16.5775 10.2887L16.0417 9.76396ZM16.9674 15.4492L17.4124 16.053L17.4124 16.053L16.9674 15.4492ZM16.0417 15.9095L16.0417 15.1595L16.0417 15.1595L16.0417 15.9095ZM15.5608 14.8455C14.9725 14.4119 14.2213 13.7977 13.6245 13.1161C13.0044 12.4079 12.6667 11.7571 12.6667 11.2385H11.1667C11.1667 12.3265 11.8204 13.3328 12.4959 14.1043C13.1947 14.9023 14.043 15.5902 14.6709 16.053L15.5608 14.8455ZM12.6667 11.2385C12.6667 10.2423 13.1096 9.73563 13.5458 9.57255C13.9903 9.40633 14.7211 9.48729 15.5058 10.2887L16.5775 9.23925C15.506 8.14488 14.1743 7.73608 13.0204 8.16756C11.8581 8.60218 11.1667 9.78063 11.1667 11.2385H12.6667ZM17.4124 16.053C18.0403 15.5902 18.8886 14.9023 19.5874 14.1043C20.2629 13.3328 20.9167 12.3265 20.9167 11.2385H19.4167C19.4167 11.7571 19.0789 12.408 18.4589 13.1161C17.8621 13.7977 17.1108 14.4119 16.5225 14.8455L17.4124 16.053ZM20.9167 11.2385C20.9167 9.78063 20.2252 8.60218 19.0629 8.16756C17.909 7.73608 16.5773 8.14488 15.5058 9.23925L16.5775 10.2887C17.3622 9.48729 18.093 9.40633 18.5375 9.57255C18.9737 9.73563 19.4167 10.2423 19.4167 11.2385H20.9167ZM14.6709 16.053C15.0248 16.3137 15.4442 16.6595 16.0417 16.6595L16.0417 15.1595C16.0405 15.1595 16.0351 15.1652 15.9789 15.1348C15.8935 15.0886 15.7849 15.0106 15.5608 14.8455L14.6709 16.053ZM16.5225 14.8455C16.2984 15.0106 16.1898 15.0886 16.1045 15.1348C16.0482 15.1652 16.0428 15.1595 16.0417 15.1595L16.0417 16.6595C16.6391 16.6595 17.0586 16.3137 17.4124 16.053L16.5225 14.8455Z" fill="#0C2F54"/>
</svg>
