<svg width="28" height="27" viewBox="0 0 28 27" fill="none" xmlns="http://www.w3.org/2000/svg">
<path fill-rule="evenodd" clip-rule="evenodd" d="M14 26.8337C7.7146 26.8337 4.5719 26.8337 2.61928 24.881C0.666656 22.9284 0.666656 19.7857 0.666656 13.5003C0.666656 7.21493 0.666656 4.07224 2.61928 2.11961C4.5719 0.166992 7.7146 0.166992 14 0.166992C20.2854 0.166992 23.4281 0.166992 25.3807 2.11961C27.3333 4.07224 27.3333 7.21493 27.3333 13.5003C27.3333 19.7857 27.3333 22.9284 25.3807 24.881C23.4281 26.8337 20.2854 26.8337 14 26.8337ZM14 8.50033C14.5523 8.50033 15 8.94804 15 9.50033V12.5004H18C18.5523 12.5004 19 12.9481 19 13.5004C19 14.0526 18.5523 14.5004 18 14.5004H15L15 17.5003C15 18.0526 14.5523 18.5003 14 18.5003C13.4477 18.5003 13 18.0526 13 17.5003V14.5004H9.99999C9.44771 14.5004 8.99999 14.0526 8.99999 13.5004C8.99999 12.9481 9.44771 12.5004 9.99999 12.5004H13L13 9.50033C13 8.94804 13.4477 8.50033 14 8.50033Z" fill="#1C274C"/>
</svg>
