<svg width="32" height="32" viewBox="0 0 32 32" fill="none" xmlns="http://www.w3.org/2000/svg">
<path d="M15.9998 25.9167C17.5582 25.9167 18.8332 27.1917 18.8332 28.75C18.8332 30.3083 17.5582 31.5833 15.9998 31.5833C14.4415 31.5833 13.1665 30.3083 13.1665 28.75C13.1665 27.1917 14.4415 25.9167 15.9998 25.9167ZM15.9998 0.416672C17.5582 0.416672 18.8332 1.69167 18.8332 3.25001C18.8332 4.80834 17.5582 6.08334 15.9998 6.08334C14.4415 6.08334 13.1665 4.80834 13.1665 3.25001C13.1665 1.69167 14.4415 0.416672 15.9998 0.416672ZM7.49984 21.6667C9.05817 21.6667 10.3332 22.9417 10.3332 24.5C10.3332 26.0583 9.05817 27.3333 7.49984 27.3333C5.9415 27.3333 4.6665 26.0583 4.6665 24.5C4.6665 22.9417 5.9415 21.6667 7.49984 21.6667ZM3.24984 13.1667C4.80817 13.1667 6.08317 14.4417 6.08317 16C6.08317 17.5583 4.80817 18.8333 3.24984 18.8333C1.6915 18.8333 0.416504 17.5583 0.416504 16C0.416504 14.4417 1.6915 13.1667 3.24984 13.1667ZM7.49984 4.66667C9.05817 4.66667 10.3332 5.94167 10.3332 7.5C10.3332 9.05834 9.05817 10.3333 7.49984 10.3333C5.9415 10.3333 4.6665 9.05834 4.6665 7.5C4.6665 5.94167 5.9415 4.66667 7.49984 4.66667ZM24.4998 21.6667C26.0582 21.6667 27.3332 22.9417 27.3332 24.5C27.3332 26.0583 26.0582 27.3333 24.4998 27.3333C22.9415 27.3333 21.6665 26.0583 21.6665 24.5C21.6665 22.9417 22.9415 21.6667 24.4998 21.6667ZM28.7498 13.1667C30.3082 13.1667 31.5832 14.4417 31.5832 16C31.5832 17.5583 30.3082 18.8333 28.7498 18.8333C27.1915 18.8333 25.9165 17.5583 25.9165 16C25.9165 14.4417 27.1915 13.1667 28.7498 13.1667ZM24.4998 4.66667C26.0582 4.66667 27.3332 5.94167 27.3332 7.5C27.3332 9.05834 26.0582 10.3333 24.4998 10.3333C22.9415 10.3333 21.6665 9.05834 21.6665 7.5C21.6665 5.94167 22.9415 4.66667 24.4998 4.66667Z" fill="#0C2F54"/>
</svg>
