<svg width="61" height="60" viewBox="0 0 61 60" fill="none" xmlns="http://www.w3.org/2000/svg">
<path d="M27.6776 51.1487C24.3308 50.6737 21.1443 49.4116 18.3799 47.4661C15.6155 45.5205 13.3521 42.947 11.7754 39.9568C10.1987 36.9666 9.35382 33.6451 9.31006 30.265C9.2663 26.8849 10.0249 23.5426 11.5237 20.5126L13.3387 21.8865L13.3805 12.5125L4.36984 15.0969L6.81191 16.9453C5.24083 19.8185 4.20303 22.9524 3.74875 26.1954C1.64746 41.0616 11.9959 54.816 26.8621 56.9167C30.6812 57.4607 34.5725 57.1836 38.276 56.104C41.9795 55.0244 45.41 53.1671 48.3386 50.656L43.9966 46.6887C41.7253 48.5073 39.1055 49.8412 36.2989 50.6083C33.4922 51.3754 30.5581 51.5593 27.6776 51.1487Z" fill="#C6DC3A"/>
<path d="M45.8276 45.1609L43.7917 43.125V30.9375C43.7915 28.0684 42.8515 25.2784 41.1155 22.9941C39.3794 20.7098 36.943 19.057 34.1787 18.2885L37.2292 13.125H24.1042L27.1548 18.2885C24.3905 19.057 21.9541 20.7098 20.218 22.9941C18.482 25.2784 17.542 28.0684 17.5417 30.9375V43.125L15.5058 45.1609C15.2596 45.4071 15.0643 45.6994 14.9311 46.0212C14.7978 46.3429 14.7292 46.6877 14.7292 47.0359C14.7293 47.7391 15.0087 48.4136 15.5059 48.9108C16.0032 49.4081 16.6776 49.6875 17.3808 49.6875H43.9526C44.6559 49.6875 45.3303 49.4081 45.8276 48.9108C46.3248 48.4136 46.6042 47.7391 46.6042 47.0359C46.6043 46.6877 46.5357 46.3429 46.4024 46.0212C46.2692 45.6994 46.0739 45.4071 45.8276 45.1609Z" fill="#86B63B"/>
<path d="M30.3542 44.0623H23.1667C22.4208 44.0623 21.7055 44.3586 21.178 44.8861C20.6506 45.4135 20.3542 46.1289 20.3542 46.8748C20.3542 47.6207 20.6506 48.3361 21.178 48.8636C21.7055 49.391 22.4208 49.6873 23.1667 49.6873H21.2917L10.6316 44.8045C10.1597 44.5883 9.64064 44.4955 9.1231 44.5349C8.60557 44.5743 8.10653 44.7445 7.6728 45.0296C7.2485 45.3085 6.90016 45.6884 6.65909 46.1353C6.41803 46.5822 6.29179 47.0819 6.29175 47.5897V47.7935C6.29173 48.3624 6.45017 48.9202 6.74933 49.4042C7.04848 49.8882 7.47651 50.2793 7.98546 50.5338L18.9164 55.9993C20.4785 56.7805 22.201 57.1872 23.9476 57.1873H43.7917V44.0623C41.7858 42.9161 39.5199 42.3023 37.2097 42.2795C34.8996 42.2566 32.622 42.8254 30.5937 43.9317L30.3542 44.0623Z" fill="#FDC8A2"/>
<path d="M55.0417 44.0625H43.7917V57.1875H55.0417V44.0625Z" fill="#375E8D"/>
<path d="M34.4696 3.08197C27.6987 2.11546 20.8128 3.74606 15.1943 7.64642L18.3238 12.5669C22.2065 9.82232 26.8937 8.45124 31.6434 8.67072C36.3931 8.8902 40.9339 10.6877 44.5469 13.7787C48.1599 16.8696 50.6387 21.0774 51.5908 25.7358C52.5429 30.3943 51.914 35.2372 49.8036 39.498L47.9672 38.1079L47.9253 47.482L56.9362 44.8974L54.5138 43.0637C56.0884 40.1876 57.1284 37.0498 57.5835 33.8027C59.6842 18.9365 49.3357 5.18209 34.4696 3.08197Z" fill="#C6DC3A"/>
<path d="M14.3179 12.5162L14.2758 21.8912C14.275 22.0654 14.2257 22.2358 14.1335 22.3836C14.0412 22.5313 13.9097 22.6504 13.7535 22.7275C13.5974 22.8047 13.4229 22.8368 13.2495 22.8203C13.0761 22.8038 12.9108 22.7394 12.772 22.6342L11.887 21.9635C10.5282 25.1471 9.99963 28.6234 10.3508 32.0669C10.7019 35.5105 11.9213 38.8086 13.8948 41.6523L12.3553 42.7225C10.08 39.4446 8.72481 35.6167 8.43092 31.6374C8.13702 27.658 8.91511 23.6726 10.6842 20.096C10.7455 19.9724 10.8333 19.8638 10.9414 19.778C11.0495 19.6922 11.1752 19.6314 11.3095 19.5998C11.4438 19.5682 11.5835 19.5666 11.7184 19.5952C11.8534 19.6238 11.9805 19.6818 12.0904 19.7652L12.4093 20.0067L12.4374 13.7578L6.4311 15.4805L7.37798 16.197C7.5573 16.3327 7.68187 16.5283 7.72896 16.7482C7.77605 16.9681 7.74252 17.1976 7.6345 17.3948C7.00936 18.5372 6.47044 19.7247 6.02223 20.9474L4.26173 20.3029C4.64895 19.2465 5.09941 18.2145 5.61067 17.2123L3.80411 15.8448C3.66527 15.7397 3.55844 15.5981 3.49558 15.4357C3.43273 15.2733 3.41633 15.0967 3.44823 14.9255C3.48013 14.7543 3.55907 14.5954 3.67619 14.4666C3.79332 14.3378 3.94401 14.2441 4.11137 14.1961L13.1219 11.6108C13.2618 11.5707 13.4092 11.5637 13.5522 11.5903C13.6953 11.617 13.8302 11.6766 13.9463 11.7645C14.0623 11.8523 14.1563 11.966 14.2208 12.0965C14.2854 12.227 14.3186 12.3707 14.3179 12.5162ZM5.52606 42.6084L7.20184 41.7663C4.8004 36.999 3.91896 31.6099 4.67645 26.3259C4.82752 25.2578 5.04334 24.1999 5.32274 23.158L3.51184 22.6717C3.21283 23.7873 2.98193 24.92 2.82044 26.0637C2.00856 31.7255 2.95291 37.5002 5.52606 42.6084ZM26.1722 21.6567C25.5756 21.947 25.0083 22.2939 24.4781 22.6928L25.6054 24.191C26.0393 23.8645 26.5036 23.5806 26.9919 23.3431L26.1722 21.6567ZM20.3543 31.8749H22.2293V30.9374C22.2286 28.8469 23.0061 26.8311 24.4104 25.2825L23.0202 24.0246C21.3036 25.9177 20.3533 28.382 20.3543 30.9374V31.8749ZM55.9793 57.1874V48.7499H54.1043V56.2499H44.7293V44.9999H45.6668V43.1249H44.0322C41.9051 41.9576 39.5184 41.3443 37.092 41.3413C34.6657 41.3383 32.2775 41.9458 30.1475 43.1079L30.116 43.1249H23.1668C22.5907 43.1255 22.0226 43.2587 21.5063 43.5141C20.9899 43.7695 20.5393 44.1403 20.1892 44.5977C19.8392 45.0552 19.599 45.587 19.4874 46.1522C19.3758 46.7173 19.3958 47.3005 19.5457 47.8567L15.8945 46.1835C15.9697 46.0517 16.062 45.9304 16.1691 45.8229L18.2047 43.7873C18.3804 43.6116 18.4791 43.3734 18.4793 43.1249V30.9374C18.4841 28.2744 19.3586 25.6859 20.9698 23.5657C22.581 21.4454 24.8407 19.9095 27.4051 19.1916C27.5438 19.1531 27.6718 19.0833 27.7791 18.9874C27.8865 18.8916 27.9703 18.7723 28.0241 18.6388C28.078 18.5053 28.1004 18.3613 28.0896 18.2177C28.0788 18.0742 28.0351 17.9351 27.9618 17.8112L25.7471 14.0624H35.5864L33.3716 17.8112C33.2984 17.9351 33.2547 18.0742 33.2439 18.2177C33.233 18.3613 33.2554 18.5053 33.3093 18.6388C33.3631 18.7723 33.4469 18.8916 33.5543 18.9874C33.6617 19.0833 33.7896 19.1531 33.9283 19.1916C36.4927 19.9095 38.7524 21.4454 40.3637 23.5656C41.9749 25.6859 42.8494 28.2744 42.8543 30.9374V41.2499H44.7293V30.9374C44.7235 28.0714 43.845 25.2752 42.2107 22.9208C40.5764 20.5665 38.2638 18.7657 35.5808 17.7582L38.0365 13.6017C38.1206 13.4593 38.1655 13.2973 38.1668 13.1319C38.168 12.9666 38.1255 12.8038 38.0435 12.6602C37.9615 12.5166 37.843 12.3972 37.7 12.3142C37.557 12.2311 37.3946 12.1874 37.2293 12.1874H24.1043C23.9389 12.1874 23.7765 12.2311 23.6335 12.3142C23.4905 12.3972 23.372 12.5166 23.29 12.6602C23.2081 12.8038 23.1655 12.9666 23.1668 13.1319C23.168 13.2973 23.213 13.4593 23.2971 13.6017L25.7527 17.7582C23.0697 18.7657 20.7571 20.5665 19.1228 22.9208C17.4885 25.2752 16.61 28.0714 16.6043 30.9374V42.7366L14.8433 44.4975C14.5781 44.7624 14.3562 45.0673 14.1856 45.4011L11.0216 43.952C10.0963 43.54 9.05023 43.4899 8.08989 43.8118C7.12956 44.1336 6.32485 44.8039 5.83473 45.6902C4.75661 47.6968 5.52266 50.3503 7.56583 51.3738L18.4973 56.8395C20.1904 57.6827 22.0557 58.1227 23.9472 58.1249H37.2293V56.2499H23.9472C22.3467 56.2479 20.7684 55.8755 19.3358 55.1618L8.40477 49.6964C7.32594 49.1573 6.91977 47.6277 7.48555 46.5792C7.74577 46.1081 8.17342 45.7518 8.68382 45.581C9.19423 45.4102 9.75018 45.4372 10.2416 45.6568L20.9013 50.5397C21.0238 50.5958 21.157 50.6249 21.2918 50.6249H31.6043V48.7499H23.1668C22.6695 48.7499 22.1926 48.5523 21.8409 48.2007C21.4893 47.8491 21.2918 47.3722 21.2918 46.8749C21.2918 46.3776 21.4893 45.9007 21.8409 45.5491C22.1926 45.1974 22.6695 44.9999 23.1668 44.9999H30.3539C30.5098 44.9999 30.6633 44.961 30.8005 44.8867L31.0431 44.7553C32.8507 43.7689 34.8726 43.2408 36.9318 43.2171C38.9909 43.1935 41.0244 43.6751 42.8543 44.6197V56.2499H39.1043V58.1249H55.0418C55.2904 58.1249 55.5289 58.0261 55.7047 57.8503C55.8805 57.6745 55.9793 57.436 55.9793 57.1874ZM50.3543 52.4999C50.3543 52.129 50.2443 51.7665 50.0383 51.4582C49.8322 51.1498 49.5394 50.9095 49.1968 50.7676C48.8542 50.6257 48.4772 50.5886 48.1135 50.6609C47.7498 50.7333 47.4157 50.9118 47.1534 51.1741C46.8912 51.4363 46.7126 51.7704 46.6403 52.1341C46.5679 52.4978 46.6051 52.8748 46.747 53.2174C46.8889 53.56 47.1292 53.8529 47.4376 54.0589C47.7459 54.2649 48.1084 54.3749 48.4793 54.3749C48.9764 54.3743 49.4529 54.1766 49.8044 53.8251C50.1559 53.4736 50.3537 52.997 50.3543 52.4999ZM31.6043 27.1874V30.9374C32.5988 30.9374 33.5527 31.3325 34.2559 32.0357C34.9592 32.739 35.3543 33.6928 35.3543 34.6874C35.3543 35.6819 34.9592 36.6358 34.2559 37.339C33.5527 38.0423 32.5988 38.4374 31.6043 38.4374V40.3124H29.7293V38.4374C28.735 38.4363 27.7819 38.0408 27.0788 37.3378C26.3758 36.6348 25.9804 35.6816 25.9793 34.6874H27.8543C27.8549 35.1845 28.0526 35.6611 28.4041 36.0126C28.7556 36.3641 29.2322 36.5618 29.7293 36.5624V32.8124C28.7347 32.8124 27.7809 32.4173 27.0776 31.714C26.3744 31.0108 25.9793 30.0569 25.9793 29.0624C25.9793 28.0678 26.3744 27.114 27.0776 26.4107C27.7809 25.7075 28.7347 25.3124 29.7293 25.3124V23.4374H31.6043V25.3124C32.5985 25.3135 33.5517 25.7089 34.2547 26.412C34.9577 27.115 35.3531 28.0682 35.3543 29.0624H33.4793C33.4787 28.5653 33.2809 28.0887 32.9294 27.7372C32.5779 27.3857 32.1014 27.188 31.6043 27.1874ZM29.7293 27.1874C29.232 27.1874 28.7551 27.3849 28.4034 27.7366C28.0518 28.0882 27.8543 28.5651 27.8543 29.0624C27.8543 29.5597 28.0518 30.0366 28.4034 30.3882C28.7551 30.7398 29.232 30.9374 29.7293 30.9374V27.1874ZM31.6043 32.8124V36.5624C32.1015 36.5624 32.5785 36.3648 32.9301 36.0132C33.2817 35.6616 33.4793 35.1847 33.4793 34.6874C33.4793 34.1901 33.2817 33.7132 32.9301 33.3616C32.5785 33.0099 32.1015 32.8124 31.6043 32.8124ZM34.3384 4.00957C39.8297 4.78574 44.9343 7.28057 48.9205 11.1364C52.9066 14.9923 55.5697 20.0112 56.5278 25.4738L58.3748 25.151C57.5602 20.5027 55.5893 16.134 52.6435 12.4471C49.6977 8.76031 45.8716 5.87386 41.5176 4.05356C37.1637 2.23326 32.4217 1.53761 27.7283 2.03067C23.035 2.52373 18.5411 4.18965 14.6605 6.87504C14.4613 7.01299 14.3233 7.22268 14.2753 7.46016C14.2274 7.69763 14.2732 7.94445 14.4033 8.14887L17.5327 13.0693C17.6009 13.1765 17.6902 13.2688 17.7951 13.3404C17.9 13.4121 18.0183 13.4617 18.143 13.4862C18.2677 13.5107 18.396 13.5096 18.5202 13.483C18.6444 13.4564 18.762 13.4048 18.8656 13.3314C23.1157 10.3121 28.3629 9.04007 33.5238 9.77778C44.6737 11.3532 52.4636 21.7064 50.8877 32.8564C50.6366 34.6432 50.1501 36.3888 49.4408 38.0479L48.5329 37.3605C48.3941 37.2555 48.2288 37.1911 48.0555 37.1747C47.8822 37.1583 47.7077 37.1905 47.5517 37.2677C47.3956 37.3448 47.2641 37.4639 47.1719 37.6116C47.0797 37.7592 47.0305 37.9297 47.0297 38.1038L46.9877 47.4779C46.9871 47.6235 47.0203 47.7672 47.0848 47.8977C47.1494 48.0281 47.2434 48.1418 47.3594 48.2296C47.4755 48.3175 47.6104 48.3771 47.7535 48.4037C47.8966 48.4304 48.0439 48.4234 48.1838 48.3832L57.1946 45.7986C57.362 45.7506 57.5126 45.6569 57.6297 45.5281C57.7468 45.3993 57.8258 45.2404 57.8577 45.0693C57.8895 44.8981 57.8732 44.7215 57.8103 44.5591C57.7475 44.3968 57.6407 44.2551 57.5019 44.15L55.7154 42.7977C58.0298 38.2471 59.0705 33.1553 58.7271 28.0615L56.8564 28.1889C56.9797 30.0185 56.9123 31.856 56.6552 33.6717C56.2167 36.807 55.2126 39.8366 53.6917 42.6131C53.5836 42.8104 53.55 43.0399 53.597 43.2598C53.6441 43.4797 53.7686 43.6754 53.9479 43.8111L54.8752 44.5132L48.8683 46.2359L48.8963 39.9868L49.2377 40.2447C49.3477 40.3279 49.4746 40.3858 49.6096 40.4143C49.7445 40.4428 49.884 40.4412 50.0183 40.4096C50.1525 40.378 50.2781 40.3172 50.3862 40.2315C50.4942 40.1457 50.582 40.0373 50.6432 39.9137C51.7031 37.7756 52.4125 35.4811 52.7442 33.1179C54.4643 20.9449 45.9597 9.64137 33.7861 7.92176C28.4875 7.16372 23.0935 8.34566 18.5975 11.2499L16.4774 7.91625C21.7674 4.5083 28.1086 3.12131 34.3384 4.00957Z" fill="black"/>
</svg>
