<svg width="65" height="65" viewBox="0 0 65 65" fill="none" xmlns="http://www.w3.org/2000/svg">
<g clip-path="url(#clip0_213_537)">
<path d="M31.4031 22.7529C31.8266 23.155 32.5308 23.0737 32.8526 22.5882L39.1898 13.0241C39.4804 12.5857 39.3604 11.9946 38.922 11.704C38.4842 11.4139 37.893 11.5339 37.6024 11.9718L31.8915 20.5907L28.7182 17.5775C28.3368 17.2155 27.7343 17.2314 27.3718 17.6127C27.0098 17.9941 27.0256 18.5966 27.407 18.9586C27.4065 18.9586 31.3996 22.7499 31.4031 22.7529Z" fill="#A6A6A6"/>
<path d="M32.0527 37.2756C32.2347 37.3589 32.436 37.4031 32.6364 37.4031H32.6443C32.8481 37.4021 33.0525 37.3555 33.2349 37.2682C47.7136 30.3825 50.1673 15.526 50.574 11.1367C50.6672 10.1344 50.1029 9.20113 49.17 8.81432C46.2878 7.61768 44.3285 4.94175 44.0567 1.8309C43.9729 0.873299 43.1546 0.126953 42.1906 0.126953H42.1792L22.673 0.241509C21.6897 0.246963 20.8907 0.994301 20.8154 1.97968C20.5753 5.09151 18.6448 7.78679 15.7769 9.01367C14.8535 9.40842 14.3031 10.3467 14.4082 11.3484C14.8664 15.7328 17.4942 30.56 32.0527 37.2756ZM16.5257 10.7642C20.0422 9.26064 22.4112 5.95936 22.7122 2.14531L42.1623 2.03125C42.508 5.83687 44.9107 9.10789 48.4401 10.5728C48.5978 10.6388 48.6935 10.7945 48.6781 10.9611C48.2962 15.0747 46.0116 28.9448 32.6329 35.4447C19.1774 29.103 16.732 15.2597 16.3016 11.1506C16.2842 10.9844 16.3745 10.8292 16.5257 10.7642Z" fill="#A6A6A6"/>
<path d="M18.9031 16.0427C19.0182 16.4662 19.5552 16.854 20.072 16.7117C20.5788 16.5718 20.8788 16.0506 20.741 15.5433C20.4985 14.6497 20.2946 13.7437 20.1345 12.8461C22.7211 11.1605 24.6408 8.64471 25.5825 5.70644L39.3332 5.62561C40.3091 8.55198 42.258 11.0459 44.8645 12.7008C44.7153 13.6008 44.5219 14.5098 44.2893 15.407C44.1574 15.9163 44.4633 16.436 44.9722 16.5679C45.4819 16.6998 46.0012 16.3938 46.1331 15.8845C46.4058 14.8312 46.628 13.762 46.7926 12.7067C46.8849 12.1171 46.6151 11.5374 46.1063 11.2299C43.6783 9.76349 41.8836 7.46296 41.053 4.75231C40.866 4.14284 40.2913 3.71933 39.6535 3.71933H39.6446L25.2483 3.80363C24.6066 3.8076 24.0323 4.23954 23.8523 4.85348C23.0539 7.57355 21.286 9.89491 18.8753 11.3901C18.37 11.703 18.1077 12.2857 18.2064 12.8748C18.3839 13.9277 18.618 14.9934 18.9031 16.0427Z" fill="#A6A6A6"/>
<path d="M44.2085 18.8659C43.7225 18.6646 43.166 18.8967 42.9652 19.3827C40.7648 24.7157 37.2816 28.7703 32.6091 31.4388C27.9004 28.8218 24.3666 24.8015 22.1042 19.4853C21.8979 19.0018 21.3385 18.7767 20.855 18.9825C20.371 19.1883 20.1459 19.7477 20.3517 20.2312C22.8208 26.0323 26.7107 30.4058 31.9133 33.229C32.1325 33.3485 32.3726 33.4075 32.6121 33.4075C32.8576 33.4075 33.1025 33.3455 33.3257 33.2211C38.4891 30.3403 42.3245 25.9287 44.7257 20.1087C44.9265 19.6227 44.6949 19.0663 44.2085 18.8659Z" fill="#A6A6A6"/>
<path d="M6.10912 48.8482C4.25194 48.8482 2.7404 50.3592 2.7404 52.2169C2.7404 54.0746 4.25194 55.5856 6.10912 55.5856C7.9668 55.5856 9.47834 54.0746 9.47834 52.2169C9.47834 50.3592 7.9673 48.8482 6.10912 48.8482ZM6.10912 53.6814C5.30178 53.6814 4.6447 53.0248 4.6447 52.2169C4.6447 51.4096 5.30178 50.7525 6.10912 50.7525C6.91696 50.7525 7.57404 51.4096 7.57404 52.2169C7.57404 53.0248 6.91696 53.6814 6.10912 53.6814Z" fill="#A6A6A6"/>
<path d="M64.3171 39.5266C63.0967 37.7333 60.6395 37.2583 58.8398 38.4673L46.3925 46.7981L43.7354 46.6488L43.6674 45.9684C43.4026 43.3039 41.3659 41.1809 38.7148 40.806C38.6979 40.8035 38.6815 40.8015 38.6647 40.8001L25.2523 39.6247C24.7985 39.5538 23.346 39.1368 19.3549 36.8476C17.2805 35.658 14.9433 34.9865 12.5689 34.8952V32.4043C12.5689 31.1541 11.5523 30.1375 10.3021 30.1375H2.26682C1.01713 30.1375 1.52588e-05 31.1546 1.52588e-05 32.4043V56.9375C1.52588e-05 58.1872 1.01713 59.2043 2.26682 59.2043H10.3021C11.5518 59.2043 12.5689 58.1872 12.5689 56.9375V56.2616L24.2932 60.7014C24.319 60.7114 25.2711 61.0674 27.0217 60.9023C27.0266 60.9018 46.5025 58.0939 46.5025 58.0939C46.5075 58.0935 46.512 58.0925 46.5169 58.0915C48.1812 57.8262 49.7508 57.1225 51.0565 56.0577C51.0684 56.0478 51.0798 56.0379 51.0912 56.028L63.673 44.7118C65.1557 43.3952 65.4329 41.166 64.3171 39.5266ZM62.4039 43.292L49.8356 54.5963C48.7951 55.4398 47.5464 55.9977 46.2234 56.21L26.7569 59.0163C26.7524 59.0168 26.746 59.0178 26.74 59.0188C26.737 59.0193 26.7336 59.0198 26.7306 59.0203C26.1484 59.1121 25.5419 59.0734 24.9275 58.9053L12.5689 54.2253V43.3515C12.5689 42.8254 12.1424 42.3994 11.6167 42.3994C11.0906 42.3994 10.6646 42.8254 10.6646 43.3515V56.9375C10.6646 57.1373 10.5019 57.3 10.3021 57.3H2.26682C2.06697 57.3 1.90431 57.1373 1.90431 56.9375V32.4043C1.90431 32.2044 2.06697 32.0418 2.26682 32.0418H10.3021C10.5019 32.0418 10.6646 32.2044 10.6646 32.4043V39.0505C10.6646 39.5766 11.0911 40.0026 11.6167 40.0026C12.1429 40.0026 12.5689 39.5761 12.5689 39.0505V36.8015C14.6115 36.8918 16.621 37.475 18.4072 38.5C23.221 41.2608 24.5654 41.4512 25.0073 41.5137C25.0242 41.5162 25.0405 41.5176 25.0574 41.5196L38.4713 42.6949C40.2397 42.9563 41.5955 44.3766 41.7726 46.1569L41.8231 46.6642L23.8647 47.7731C23.8523 47.7721 23.8399 47.7711 23.829 47.7701C23.2468 47.7175 22.7212 47.4423 22.3477 46.995C22.011 46.5908 21.4105 46.5363 21.0068 46.8735C20.6026 47.2102 20.5481 47.8107 20.8853 48.2144C21.584 49.0525 22.5699 49.5539 23.6594 49.6669C24.2476 49.7284 42.8705 48.5075 42.8705 48.5075L46.6037 48.7173C46.81 48.7292 47.0148 48.6726 47.1864 48.5576L59.9006 40.0488C60.8344 39.4214 62.1094 39.6674 62.7426 40.5977C63.3214 41.4487 63.1775 42.6052 62.4039 43.292Z" fill="#A6A6A6"/>
</g>
<defs>
<clipPath id="clip0_213_537">
<rect width="65" height="65" fill="white"/>
</clipPath>
</defs>
</svg>
