<svg width="61" height="60" viewBox="0 0 61 60" fill="none" xmlns="http://www.w3.org/2000/svg">
<g clip-path="url(#clip0_88_697)">
<path d="M59.5 6.68012V14.7501C59.4974 21.5968 56.5898 28.1208 51.5 32.7001C49.611 34.4065 47.4689 35.8098 45.15 36.8601C44.7375 37.0501 44.2625 37.0501 43.85 36.8601C39.6906 34.9799 36.1377 31.9776 33.59 28.1901C33.33 27.8001 33.08 27.4101 32.84 27.0001C30.6541 23.2877 29.5009 19.0583 29.5 14.7501V6.68012C29.4976 5.85211 30.1433 5.16688 30.97 5.12012C33.73 4.94012 39.73 4.22012 43.51 1.34012C44.0933 0.890207 44.9067 0.890207 45.49 1.34012C49.27 4.22012 55.27 4.94012 58.03 5.12012C58.8567 5.16688 59.5024 5.85211 59.5 6.68012Z" fill="#CFD8DC"/>
<path d="M44.987 32.4701C44.6824 32.6372 44.3136 32.6372 44.009 32.4701C41.159 30.8934 38.7252 28.6609 36.909 25.9571C34.6835 22.6443 33.4966 18.7431 33.5 14.7521V9.77413C33.5002 9.28069 33.8603 8.86114 34.348 8.78613C37.7237 8.37009 40.9971 7.35054 44.012 5.77613C44.3149 5.60522 44.6851 5.60522 44.988 5.77613C48.0029 7.35054 51.2763 8.37009 54.652 8.78613C55.1397 8.86114 55.4998 9.28069 55.5 9.77413V14.7521C55.4727 22.1289 51.4485 28.9111 44.987 32.4701Z" fill="#60A917"/>
<path d="M54.6519 8.78613C51.2762 8.37009 48.0028 7.35054 44.9879 5.77613C44.685 5.60522 44.3148 5.60522 44.0119 5.77613C43.6809 5.96213 43.3409 6.13213 42.9999 6.29813C45.7412 7.56097 48.6585 8.39988 51.6519 8.78613C52.1396 8.86114 52.4997 9.28069 52.4999 9.77413V14.7521C52.4738 21.71 48.886 28.1698 42.9929 31.8691C43.3263 32.0791 43.6649 32.2791 44.0089 32.4691C44.3135 32.6362 44.6823 32.6362 44.9869 32.4691C51.448 28.9102 55.4722 22.1285 55.4999 14.7521V9.77413C55.4997 9.28069 55.1396 8.86114 54.6519 8.78613Z" fill="#549414"/>
<path d="M51.5 32.7V55C51.5 57.2091 49.7091 59 47.5 59H5.5C3.29086 59 1.5 57.2091 1.5 55V31C1.5 28.7909 3.29086 27 5.5 27H32.84C33.08 27.41 33.33 27.8 33.59 28.19C36.1377 31.9775 39.6906 34.9798 43.85 36.86C44.2625 37.05 44.7375 37.05 45.15 36.86C47.4689 35.8097 49.6109 34.4064 51.5 32.7Z" fill="#FF9801"/>
<path d="M48.5 35.0162V55.0002C48.5 57.2093 46.7091 59.0002 44.5 59.0002H47.5C49.7091 59.0002 51.5 57.2093 51.5 55.0002V32.7002C50.561 33.5482 49.558 34.3225 48.5 35.0162Z" fill="#F57C00"/>
<path d="M40.85 36.86C41.2625 37.05 41.7375 37.05 42.15 36.86C42.439 36.729 42.713 36.578 42.995 36.437C39.2026 34.545 35.9644 31.7039 33.595 28.19C33.335 27.8 33.085 27.41 32.845 27H29.845C30.085 27.41 30.335 27.8 30.595 28.19C33.1413 31.9767 36.6924 34.979 40.85 36.86Z" fill="#F57C00"/>
<path d="M12.5 32.0002H8.5C7.39543 32.0002 6.5 32.8957 6.5 34.0002V36.0002C6.5 37.1048 7.39543 38.0002 8.5 38.0002H12.5C13.6046 38.0002 14.5 37.1048 14.5 36.0002V34.0002C14.5 32.8957 13.6046 32.0002 12.5 32.0002Z" fill="#FFDC00"/>
<path d="M12.5 32.0002H9.5C10.6046 32.0002 11.5 32.8957 11.5 34.0002V36.0002C11.5 37.1048 10.6046 38.0002 9.5 38.0002H12.5C13.6046 38.0002 14.5 37.1048 14.5 36.0002V34.0002C14.5 32.8957 13.6046 32.0002 12.5 32.0002Z" fill="#FEC108"/>
<path d="M47.5 16H41.5C40.9477 16 40.5 16.4477 40.5 17V23C40.5 23.5523 40.9477 24 41.5 24H47.5C48.0523 24 48.5 23.5523 48.5 23V17C48.5 16.4477 48.0523 16 47.5 16Z" fill="#FFDC00"/>
<path d="M58.1 4.11911C55.7 3.96311 49.721 3.30311 46.1 0.541114C45.1626 -0.185254 43.8524 -0.185254 42.915 0.541114C39.292 3.30311 33.315 3.96311 30.915 4.11911C29.5619 4.20334 28.5058 5.32236 28.5 6.67811V14.7521C28.5009 18.6588 29.4167 22.511 31.174 26.0001H5.5C2.73995 26.0034 0.503306 28.2401 0.5 31.0001V55.0001C0.503306 57.7602 2.73995 59.9968 5.5 60.0001H47.5C50.2601 59.9968 52.4967 57.7602 52.5 55.0001V33.1151C57.5857 28.3599 60.4808 21.7146 60.5 14.7521V6.67811C60.4947 5.32778 59.4472 4.21088 58.1 4.11911ZM50.5 55.0001C50.5 56.657 49.1569 58.0001 47.5 58.0001H5.5C3.84315 58.0001 2.5 56.657 2.5 55.0001V31.0001C2.5 29.3433 3.84315 28.0001 5.5 28.0001H32.3C32.455 28.2491 32.6 28.5001 32.763 28.7481C35.4126 32.6938 39.1125 35.8201 43.445 37.7741C44.1177 38.0774 44.8883 38.0774 45.561 37.7741C47.314 36.9795 48.971 35.9881 50.5 34.8191V55.0001ZM58.5 14.7521C58.4667 23.9072 53.0837 32.1972 44.734 35.9521C44.5847 36.0186 44.4143 36.0186 44.265 35.9521C40.2719 34.1516 36.8621 31.2701 34.421 27.6331C31.8604 23.8257 30.4951 19.3404 30.5 14.7521V6.67811C30.5021 6.37916 30.7356 6.133 31.034 6.11511C34.243 5.90711 40.209 5.11511 44.119 2.13111C44.3426 1.95641 44.6564 1.95641 44.88 2.13111C48.791 5.11311 54.757 5.90711 57.966 6.11511C58.2644 6.133 58.4979 6.37916 58.5 6.67811V14.7521Z" fill="black"/>
<path d="M54.794 7.80006C51.5403 7.40496 48.3847 6.42558 45.479 4.90906C44.872 4.56515 44.129 4.56515 43.522 4.90906C40.6161 6.42588 37.4601 7.40527 34.206 7.80006C33.2274 7.9455 32.5021 8.78466 32.5 9.77406V14.7521C32.4956 18.9422 33.7418 23.0383 36.079 26.5161C37.987 29.3486 40.5386 31.6891 43.525 33.3461C44.1312 33.678 44.8648 33.678 45.471 33.3461C52.255 29.6147 56.4783 22.4945 56.5 14.7521V9.77406C56.4979 8.78466 55.7727 7.9455 54.794 7.80006ZM54.5 14.7521C54.4795 21.769 50.6498 28.2211 44.5 31.6001H44.49C41.7808 30.0955 39.4663 27.9709 37.736 25.4001C35.6218 22.2518 34.495 18.5443 34.5 14.7521L34.489 9.77606C37.9896 9.35618 41.3831 8.29586 44.5 6.64806C47.6137 8.29397 51.0033 9.35358 54.5 9.77406V14.7521Z" fill="black"/>
<path d="M8.5 39H12.5C14.1569 39 15.5 37.6569 15.5 36V34C15.5 32.3431 14.1569 31 12.5 31H8.5C6.84315 31 5.5 32.3431 5.5 34V36C5.5 37.6569 6.84315 39 8.5 39ZM7.5 34C7.5 33.4477 7.94772 33 8.5 33H12.5C13.0523 33 13.5 33.4477 13.5 34V36C13.5 36.5523 13.0523 37 12.5 37H8.5C7.94772 37 7.5 36.5523 7.5 36V34Z" fill="black"/>
<path d="M6.5 44H10.5C11.0523 44 11.5 43.5523 11.5 43C11.5 42.4477 11.0523 42 10.5 42H6.5C5.94772 42 5.5 42.4477 5.5 43C5.5 43.5523 5.94772 44 6.5 44Z" fill="black"/>
<path d="M18.5 42H14.5C13.9477 42 13.5 42.4477 13.5 43C13.5 43.5523 13.9477 44 14.5 44H18.5C19.0523 44 19.5 43.5523 19.5 43C19.5 42.4477 19.0523 42 18.5 42Z" fill="black"/>
<path d="M26.5 42H22.5C21.9477 42 21.5 42.4477 21.5 43C21.5 43.5523 21.9477 44 22.5 44H26.5C27.0523 44 27.5 43.5523 27.5 43C27.5 42.4477 27.0523 42 26.5 42Z" fill="black"/>
<path d="M34.5 42H30.5C29.9477 42 29.5 42.4477 29.5 43C29.5 43.5523 29.9477 44 30.5 44H34.5C35.0523 44 35.5 43.5523 35.5 43C35.5 42.4477 35.0523 42 34.5 42Z" fill="black"/>
<path d="M43.5 43C43.5 42.4477 43.0523 42 42.5 42H38.5C37.9477 42 37.5 42.4477 37.5 43C37.5 43.5523 37.9477 44 38.5 44H42.5C43.0523 44 43.5 43.5523 43.5 43Z" fill="black"/>
<path d="M13.5 48H10.5C9.94772 48 9.5 48.4477 9.5 49C9.5 49.5523 9.94772 50 10.5 50H13.5C14.0523 50 14.5 49.5523 14.5 49C14.5 48.4477 14.0523 48 13.5 48Z" fill="black"/>
<path d="M13.5 52H6.5C5.94772 52 5.5 52.4477 5.5 53C5.5 53.5523 5.94772 54 6.5 54H13.5C14.0523 54 14.5 53.5523 14.5 53C14.5 52.4477 14.0523 52 13.5 52Z" fill="black"/>
<path d="M41.5 14V15C40.3954 15 39.5 15.8954 39.5 17V23C39.5 24.1046 40.3954 25 41.5 25H47.5C48.6046 25 49.5 24.1046 49.5 23V17C49.5 15.8954 48.6046 15 47.5 15V14C47.5 12.3431 46.1569 11 44.5 11C42.8431 11 41.5 12.3431 41.5 14ZM43.5 14C43.5 13.4477 43.9477 13 44.5 13C45.0523 13 45.5 13.4477 45.5 14V15H43.5V14ZM46.5 17H47.5V23H41.5V17H46.5Z" fill="black"/>
<path d="M44.5 21C45.0523 21 45.5 20.5523 45.5 20C45.5 19.4477 45.0523 19 44.5 19C43.9477 19 43.5 19.4477 43.5 20C43.5 20.5523 43.9477 21 44.5 21Z" fill="black"/>
<path d="M45.5 53H40.5C39.9477 53 39.5 53.4477 39.5 54C39.5 54.5523 39.9477 55 40.5 55H46.5C47.0523 55 47.5 54.5523 47.5 54V49C47.5 48.4477 47.0523 48 46.5 48C45.9477 48 45.5 48.4477 45.5 49V53Z" fill="black"/>
</g>
<defs>
<clipPath id="clip0_88_697">
<rect width="60" height="60" fill="white" transform="translate(0.5)"/>
</clipPath>
</defs>
</svg>
