<svg width="22" height="23" viewBox="0 0 22 23" fill="none" xmlns="http://www.w3.org/2000/svg">
<path d="M11.9167 6.91667L2.74999 6.91667" stroke="#0C2F54" stroke-width="1.5" stroke-linecap="round"/>
<path d="M9.16666 11.5H2.74999" stroke="#0C2F54" stroke-width="1.5" stroke-linecap="round"/>
<path d="M7.33334 16.0833H2.75001" stroke="#0C2F54" stroke-width="1.5" stroke-linecap="round"/>
<path d="M10.3161 15.7756C10.1461 16.1533 10.3145 16.5973 10.6922 16.7673C11.07 16.9373 11.514 16.7688 11.6839 16.3911L10.3161 15.7756ZM15.125 6.91667L15.8089 6.6089C15.6878 6.33976 15.4201 6.16667 15.125 6.16667C14.8299 6.16667 14.5622 6.33976 14.4411 6.6089L15.125 6.91667ZM18.5661 16.3911C18.736 16.7688 19.18 16.9373 19.5578 16.7673C19.9355 16.5973 20.1039 16.1533 19.9339 15.7756L18.5661 16.3911ZM17.75 12.75L18.4339 12.4422L18.4339 12.4422L17.75 12.75ZM12.5 12C12.0858 12 11.75 12.3358 11.75 12.75C11.75 13.1642 12.0858 13.5 12.5 13.5V12ZM11.6839 16.3911L15.8089 7.22445L14.4411 6.6089L10.3161 15.7756L11.6839 16.3911ZM19.9339 15.7756L18.4339 12.4422L17.0661 13.0578L18.5661 16.3911L19.9339 15.7756ZM18.4339 12.4422L15.8089 6.6089L14.4411 7.22445L17.0661 13.0578L18.4339 12.4422ZM17.75 12H12.5V13.5H17.75V12Z" fill="#0C2F54"/>
</svg>
