<svg width="55" height="60" viewBox="0 0 55 60" fill="none" xmlns="http://www.w3.org/2000/svg">
<path d="M34.6246 35.7624C30.3834 38.9324 24.5616 38.9324 20.3204 35.7624C20.0366 35.55 19.6704 35.4818 19.3289 35.577L8.76464 38.5209C5.92788 39.3114 3.80202 41.6676 3.30581 44.5702L1.24267 56.6502C1.02202 57.942 2.01674 59.1212 3.32686 59.1212H51.6182C52.9283 59.1212 53.923 57.942 53.7024 56.6502L51.6392 44.5702C51.1435 41.6676 49.0172 39.3114 46.1804 38.5209L35.6161 35.577C35.2747 35.4818 34.9084 35.5505 34.6246 35.7624Z" fill="#F9644B"/>
<path d="M53.7025 56.6502L51.6393 44.5702C51.1431 41.6676 49.0173 39.3114 46.1805 38.5209L35.6162 35.577C35.2747 35.4818 34.9085 35.55 34.6247 35.7624C32.8111 37.1178 30.7081 37.8919 28.5635 38.0883L40.2859 41.3998C43.1227 42.1903 45.249 44.5469 45.7447 47.4496L47.7383 59.1212H51.6183C52.9284 59.1212 53.9231 57.942 53.7025 56.6502Z" fill="#DB3F2E"/>
<path d="M31.431 42.2827L35.6955 38.2773C36.4339 37.5838 36.0704 36.346 35.0748 36.1606C33.9171 35.928 33.084 34.5845 33.084 33.4035V28.1396H21.8615V33.4035C21.8615 34.5845 21.0288 35.928 19.8706 36.1606C18.875 36.3455 18.512 37.5838 19.2499 38.2773L23.5144 42.2827C25.7396 44.3729 29.2058 44.3729 31.431 42.2827Z" fill="#FFE7CF"/>
<path d="M28.7173 38.0882L33.5641 35.2995C33.6122 35.272 33.6611 35.2482 33.7115 35.2267C33.3192 34.6994 33.0839 34.0297 33.0839 33.4034V29.8567C31.5724 30.742 29.7106 31.3769 27.4726 31.4016C27.3728 31.4007 27.274 31.3984 27.1755 31.3948V35.8159C27.1755 36.8321 27.7532 37.6487 28.7173 38.0882Z" fill="#EFD5BD"/>
<path d="M39.0608 14.9992H38.3211V12.0544C38.3211 9.12335 37.1176 6.28247 34.8961 4.36993C33.1548 2.8703 30.7066 1.5611 27.4725 1.52539C24.2384 1.5611 21.7903 2.8703 20.049 4.36993C17.8275 6.28247 16.624 9.12335 16.624 12.0549V14.9997H15.8842C14.7998 14.9997 13.9209 15.8786 13.9209 16.963V19.1388C13.9209 20.2232 14.7998 21.1021 15.8842 21.1021H16.6267C16.6881 23.9521 17.8856 26.6946 20.049 28.5573C21.7903 30.0569 24.2384 31.3661 27.4725 31.4023C30.7066 31.3661 33.1548 30.0569 34.8961 28.5573C37.0595 26.6946 38.257 23.9521 38.3183 21.1021H39.0608C40.1453 21.1021 41.0242 20.2232 41.0242 19.1388V16.963C41.0242 15.8786 40.1453 14.9992 39.0608 14.9992Z" fill="#FFE7CF"/>
<path d="M39.061 14.9992H38.3212V12.0544C38.3212 9.12335 37.1178 6.28247 34.8962 4.36993C33.1549 2.8703 30.7068 1.5611 27.4727 1.52539C26.4011 1.53729 25.416 1.68927 24.5142 1.9415C26.3342 2.45053 27.8151 3.36697 28.9792 4.36993C31.2007 6.28247 32.4042 9.12335 32.4042 12.0549V14.1308L32.4014 21.1021C32.3401 23.9521 31.1426 26.6946 28.9792 28.5573C27.8151 29.5602 26.3338 30.4771 24.5142 30.9857C25.416 31.2379 26.4011 31.3904 27.4727 31.4023C30.7068 31.3661 33.1549 30.0569 34.8962 28.5573C37.0596 26.6946 38.2571 23.9521 38.3185 21.1021H39.061C40.1454 21.1021 41.0243 20.2232 41.0243 19.1388V16.963C41.0243 15.8786 40.1454 14.9992 39.061 14.9992Z" fill="#EFD5BD"/>
<path d="M23.1595 59.1212H31.7856L37.1794 36.0123L35.6161 35.577C35.2747 35.4818 34.9084 35.55 34.6246 35.7624C32.5043 37.3472 29.9884 38.8047 27.4725 38.8047C24.9567 38.8047 22.4413 37.3476 20.3204 35.7624C20.0366 35.55 19.6704 35.4818 19.3289 35.577L17.7661 36.0123L23.1595 59.1212Z" fill="#E1EFFB"/>
<path d="M17.7656 36.0123L19.5559 43.6826L27.4725 38.8046L21.381 35.2995C21.0327 35.099 20.6147 35.0574 20.2339 35.1851L17.7656 36.0123Z" fill="#BACED8"/>
<path d="M37.1795 36.0123L35.3892 43.6826L27.4727 38.8046L33.5641 35.2995C33.9125 35.099 34.3304 35.0574 34.7113 35.1851L37.1795 36.0123Z" fill="#BACED8"/>
<path d="M16.2921 22.0963H14.7256C13.4499 22.0963 12.4158 21.0622 12.4158 19.7864V16.1902C12.4158 14.9145 13.4499 13.8804 14.7256 13.8804H16.2921C16.5224 13.8804 16.7091 14.0671 16.7091 14.2974V21.6793C16.7091 21.9095 16.5224 22.0963 16.2921 22.0963Z" fill="#F9644B"/>
<path d="M30.8208 28.2261L29.1636 28.427C28.3768 28.5227 27.6613 27.962 27.5661 27.1751C27.4704 26.3882 28.0311 25.6727 28.818 25.5775L30.4751 25.3765C31.2625 25.2813 31.9775 25.8416 32.0732 26.6285C32.1684 27.4154 31.6076 28.1309 30.8208 28.2261Z" fill="#395F80"/>
<path d="M38.6531 22.0963H40.2196C41.4954 22.0963 42.5294 21.0622 42.5294 19.7864V16.1902C42.5294 14.9145 41.4954 13.8804 40.2196 13.8804H38.6531C38.4229 13.8804 38.2361 14.0671 38.2361 14.2974V21.6793C38.2361 21.9095 38.4229 22.0963 38.6531 22.0963Z" fill="#F9644B"/>
<path d="M33.9398 0.878906H21.0052C17.6768 0.878906 14.9788 3.57697 14.9788 6.90536V15.2206C14.9788 15.2206 16.6382 15.1831 17.7047 16.2383C17.9268 16.458 18.304 16.2973 18.304 15.9851V9.46793C18.304 7.99667 19.4964 6.8042 20.9677 6.8042H23.3879C24.0228 6.8042 24.638 7.02393 25.1297 7.42538L25.3668 7.61948C25.961 8.10516 26.7048 8.37067 27.4725 8.37067C28.2402 8.37067 28.984 8.10516 29.5782 7.61948L29.8153 7.42538C30.307 7.02347 30.9222 6.8042 31.5571 6.8042H33.9773C35.4481 6.8042 36.6411 7.99667 36.6411 9.46793V15.9851C36.6411 16.2973 37.0182 16.458 37.2403 16.2383C38.3069 15.1831 39.9662 15.2206 39.9662 15.2206V6.90536C39.9662 3.57697 37.2682 0.878906 33.9398 0.878906Z" fill="#FFB123"/>
<path d="M33.9398 0.878906H28.0425C31.3375 0.878906 34.0135 3.52386 34.0662 6.80649C35.4962 6.85364 36.6411 8.02643 36.6411 9.46793V15.9851C36.6411 16.2973 37.0183 16.458 37.2403 16.2383C38.3069 15.1831 39.9663 15.2206 39.9663 15.2206V6.90536C39.9663 3.57697 37.2682 0.878906 33.9398 0.878906Z" fill="#FF901D"/>
<path d="M23.1597 59.1212H31.7858L29.8192 45.1145H25.1262L23.1597 59.1212Z" fill="#395F80"/>
<path d="M27.4727 38.8047L23.1733 41.4538L25.0909 45.1145H29.7834L31.7253 41.4249L27.4727 38.8047Z" fill="#1D4859"/>
<path d="M54.569 56.5022L52.5054 44.4223C51.9552 41.2006 49.5652 38.5515 46.4167 37.6744L37.4372 35.1718L34.9909 34.352C34.7167 34.2604 34.4306 34.2224 34.1477 34.2371C34.0287 33.9638 33.9628 33.6731 33.9628 33.4039V30.3516C34.481 30.0183 34.9836 29.642 35.4697 29.2232C36.2713 28.5329 36.9575 27.7309 37.5141 26.8423L39.9082 26.5535C40.68 26.4606 41.2618 25.8041 41.2618 25.0273V22.8003C42.5097 22.3672 43.4083 21.1798 43.4083 19.7864V16.1902C43.4083 14.6461 42.3051 13.3548 40.8453 13.0632V11.5608C40.8453 11.0756 40.4516 10.6819 39.9664 10.6819C39.4807 10.6819 39.0874 11.0756 39.0874 11.5608V14.4205C38.7368 14.4814 38.317 14.5876 37.8876 14.7729C37.8817 14.7752 37.8762 14.778 37.8703 14.7807C37.7494 14.8334 37.6327 14.8901 37.5196 14.9519V9.46793C37.5196 7.51465 35.9307 5.92529 33.9774 5.92529H31.5568C30.7218 5.92529 29.9056 6.21643 29.2588 6.74515L29.0217 6.93924C28.5859 7.29584 28.0357 7.49176 27.4726 7.49176C26.9096 7.49176 26.3593 7.29584 25.9235 6.93924L25.686 6.74515C25.0391 6.21643 24.2234 5.92529 23.388 5.92529H20.9678C19.0145 5.92529 17.4252 7.51465 17.4252 9.46793V14.9519C17.3125 14.8906 17.1954 14.8334 17.0745 14.7807C17.069 14.778 17.0635 14.7757 17.0576 14.7729C16.6282 14.5876 16.2084 14.4814 15.8578 14.4209V6.90536C15.8578 4.06677 18.1667 1.75781 21.0053 1.75781H33.9399C36.7785 1.75781 39.0874 4.06677 39.0874 6.90536V7.47208C39.0874 7.95776 39.4811 8.35098 39.9664 8.35098C40.4516 8.35098 40.8453 7.95776 40.8453 7.47208V6.90536C40.8453 3.09769 37.7476 0 33.9399 0H21.0053C17.1976 0 14.1 3.09769 14.1 6.90536V13.0632C12.6402 13.3548 11.5369 14.6461 11.5369 16.1902V19.7864C11.5369 21.5446 12.9675 22.9752 14.7257 22.9752H15.9379C16.3911 25.4393 17.6247 27.6297 19.4755 29.2232C19.9616 29.642 20.4642 30.0183 20.9824 30.3516V33.4039C20.9824 33.6731 20.9161 33.9638 20.797 34.2371C20.5146 34.2224 20.2285 34.2604 19.9543 34.3524L17.508 35.1723L8.52852 37.6744C5.38002 38.5519 2.99004 41.2006 2.4398 44.4228L1.86394 47.7928C1.78246 48.2712 2.10381 48.7253 2.58217 48.8072C3.06099 48.8882 3.51509 48.5674 3.59657 48.0885L4.17244 44.7185C4.60869 42.1642 6.50383 40.0635 9.00047 39.3677L17.1185 37.1054L22.0518 58.2422H3.32695C2.96211 58.2422 2.61787 58.0824 2.38258 57.8032C2.14729 57.5244 2.0475 57.1582 2.10884 56.7984L2.90489 52.1384C2.98637 51.66 2.66502 51.2059 2.18666 51.1244C1.7083 51.0425 1.25374 51.3643 1.17226 51.8427L0.376205 56.5022C0.227432 57.3738 0.469131 58.261 1.03905 58.9366C1.60896 59.6123 2.44301 60 3.32695 60H51.6178C52.5018 60 53.3358 59.6123 53.9062 58.9366C54.4761 58.261 54.7178 57.3738 54.569 56.5022ZM39.1149 16.2103C39.4898 16.1179 39.8025 16.1023 39.9078 16.0995H39.91H39.9146H39.9151C39.9215 16.0995 39.927 16.0995 39.9316 16.0991H39.9357H39.9439H39.9462C39.954 16.0995 39.9613 16.0995 39.9686 16.0995C40.1101 16.0995 40.2465 16.0657 40.3687 16.0025C40.4456 15.9627 40.517 15.9109 40.5807 15.8492C40.7496 15.6839 40.8453 15.4573 40.8453 15.2206V14.9034C41.3213 15.136 41.6505 15.6253 41.6505 16.1902V19.7864C41.6505 20.5751 41.0087 21.2173 40.2195 21.2173H39.1149V16.2103ZM39.0073 22.9752H39.504V24.8318L38.4521 24.9586C38.6951 24.3233 38.881 23.6595 39.0073 22.9752ZM15.8303 21.2173H14.7257C13.9365 21.2173 13.2948 20.5751 13.2948 19.7864V16.1902C13.2948 15.6253 13.6239 15.136 14.1 14.9034V15.2206C14.1 15.4573 14.1952 15.6839 14.3645 15.8492C14.5321 16.0126 14.7587 16.1032 14.9917 16.0995H14.9944C14.9949 16.0995 14.9949 16.0995 14.9953 16.0991H14.999C15.0036 16.0991 15.368 16.0954 15.8303 16.2099V21.2173ZM34.0026 36.0617C34.0044 36.0603 34.0063 36.0594 34.0081 36.0585C34.0218 36.0507 34.0388 36.0429 34.058 36.0342C34.0644 36.032 34.0704 36.0292 34.0763 36.0265C34.1894 35.983 34.3153 35.9793 34.432 36.0187L36.1417 36.5913L34.8106 42.2937L29.1901 38.8303L34.0026 36.0617ZM32.5153 34.8894L30.4929 36.053L27.4726 37.7907L25.2026 36.4842L22.4299 34.8894C22.6313 34.4096 22.7402 33.8974 22.7402 33.4039V31.2923C24.1442 31.9011 25.6443 32.2307 27.2295 32.2765H27.23C27.2529 32.2769 27.2758 32.2774 27.2991 32.2778C27.3028 32.2783 27.3069 32.2783 27.3106 32.2783C27.3307 32.2787 27.3508 32.2792 27.371 32.2797H27.3879C27.4122 32.2801 27.4364 32.2806 27.4603 32.281H27.4625H27.4822H27.485C27.5088 32.2806 27.533 32.2806 27.5573 32.2797H27.5742C27.5944 32.2792 27.6141 32.2787 27.6347 32.2783C27.6383 32.2783 27.6424 32.2783 27.6461 32.2778C27.6694 32.2774 27.6923 32.2769 27.7152 32.2765H27.7157C29.3009 32.2307 30.801 31.9011 32.205 31.2923V33.4039C32.205 33.8974 32.3139 34.4096 32.5153 34.8894ZM30.5648 41.7421L29.2529 44.236H25.6228L24.3319 41.7719L27.4726 39.8369L30.5648 41.7421ZM20.6222 27.8911C18.9019 26.4098 17.8193 24.3013 17.562 21.9383C17.5748 21.8752 17.5831 21.8106 17.5863 21.7442C17.5863 21.7442 17.5863 21.7438 17.5863 21.7433C17.5867 21.7328 17.5872 21.7223 17.5877 21.7122C17.5877 21.7012 17.5881 21.6902 17.5881 21.6792V17.1638C17.5936 17.1657 17.5996 17.1675 17.6055 17.1693C17.6064 17.1693 17.6069 17.1698 17.6078 17.1698C17.6138 17.1716 17.6197 17.173 17.6252 17.1748C17.627 17.1753 17.6293 17.1758 17.6311 17.1762C17.6366 17.178 17.6421 17.1794 17.6476 17.1808C17.6499 17.1812 17.6517 17.1817 17.654 17.1822C17.6595 17.1835 17.665 17.1849 17.671 17.1863C17.6723 17.1867 17.6742 17.1867 17.6756 17.1872C17.7016 17.1936 17.7282 17.1986 17.7552 17.2028C17.757 17.2032 17.7593 17.2037 17.7612 17.2037C17.7666 17.2046 17.7721 17.2055 17.7781 17.206C17.7799 17.2064 17.7822 17.2069 17.7845 17.2073C17.79 17.2078 17.7959 17.2087 17.8014 17.2092C17.8033 17.2096 17.8056 17.2096 17.8078 17.2101C17.8133 17.2105 17.8193 17.2115 17.8248 17.2119C17.8266 17.2119 17.828 17.2124 17.8298 17.2124C17.8481 17.2142 17.8664 17.2156 17.8852 17.2165C17.8884 17.2165 17.8912 17.2169 17.8944 17.2169C17.8989 17.2174 17.9035 17.2174 17.9081 17.2174C17.9118 17.2174 17.9154 17.2179 17.9191 17.2179H17.9319C17.936 17.2179 17.9401 17.2183 17.9443 17.2183H17.9562C17.9607 17.2183 17.9653 17.2179 17.9699 17.2179H17.9804C17.9882 17.2174 17.9964 17.2174 18.0042 17.2169C18.0061 17.2165 18.0074 17.2165 18.0093 17.2165C18.0161 17.216 18.0225 17.216 18.0289 17.2156C18.0322 17.2151 18.0349 17.2151 18.0381 17.2147C18.0436 17.2147 18.0486 17.2142 18.0541 17.2137C18.0573 17.2133 18.0601 17.2128 18.0633 17.2128C18.0688 17.2124 18.0743 17.2115 18.0793 17.211C18.0825 17.2105 18.0853 17.2105 18.0885 17.2101C18.0939 17.2096 18.0999 17.2087 18.1059 17.2083C18.1081 17.2078 18.1104 17.2073 18.1127 17.2073C18.1297 17.205 18.1466 17.2023 18.1635 17.1991C18.1644 17.1991 18.1654 17.1991 18.1667 17.1986C18.1741 17.1973 18.1809 17.1959 18.1882 17.1945C18.1901 17.1941 18.1924 17.1936 18.1942 17.1936C18.2006 17.1922 18.2066 17.1909 18.213 17.1895C18.2153 17.189 18.218 17.1886 18.2203 17.1877C18.2267 17.1863 18.2327 17.1849 18.2391 17.1835C18.2409 17.1831 18.2427 17.1822 18.245 17.1817C18.2523 17.1799 18.2601 17.178 18.2674 17.1762C18.2684 17.1758 18.2688 17.1758 18.2697 17.1753C18.278 17.173 18.2867 17.1707 18.2954 17.1684C18.2958 17.1684 18.2958 17.168 18.2963 17.168C18.3041 17.1657 18.3118 17.1634 18.3196 17.1611C18.3219 17.1602 18.3242 17.1597 18.3265 17.1588C18.332 17.157 18.3379 17.1552 18.3439 17.1529C18.3462 17.1519 18.3494 17.151 18.3521 17.1501C18.3576 17.1483 18.3627 17.1465 18.3681 17.1446C18.3709 17.1437 18.3736 17.1423 18.3764 17.1414C18.3819 17.1396 18.3878 17.1373 18.3933 17.135C18.3961 17.1341 18.3984 17.1332 18.4007 17.1323C18.4084 17.1291 18.4167 17.1259 18.4245 17.1227C18.8854 16.9304 19.1834 16.4836 19.1834 15.9846V9.46793C19.1834 8.48373 19.9841 7.68311 20.9678 7.68311H23.3884C23.8192 7.68311 24.2399 7.83325 24.5736 8.10608L24.8107 8.30017C25.5601 8.91266 26.5054 9.24957 27.4726 9.24957C28.4403 9.24957 29.3856 8.91266 30.1345 8.30017L30.3716 8.10608C30.7053 7.83325 31.1265 7.68311 31.5572 7.68311H33.9774C34.9616 7.68311 35.7623 8.48373 35.7623 9.46793V15.9851C35.7623 16.4841 36.0598 16.9308 36.5208 17.1231C36.5299 17.1272 36.5395 17.1309 36.5487 17.1346C36.551 17.1355 36.5528 17.1359 36.5546 17.1368C36.562 17.1396 36.5693 17.1423 36.5766 17.1451C36.5794 17.146 36.5821 17.1469 36.5849 17.1478C36.5913 17.1501 36.5977 17.1524 36.6045 17.1547C36.6077 17.1556 36.6109 17.1565 36.6142 17.1574C36.6201 17.1597 36.6265 17.1616 36.6329 17.1638C36.6361 17.1648 36.6393 17.1657 36.6421 17.1666C36.6489 17.1684 36.6553 17.1703 36.6622 17.1721C36.665 17.173 36.6677 17.1739 36.67 17.1748C36.6778 17.1767 36.6856 17.179 36.6929 17.1808C36.6947 17.1812 36.6965 17.1817 36.6984 17.1817C36.7272 17.189 36.7565 17.1954 36.7858 17.2005C36.7867 17.2005 36.7872 17.2005 36.7881 17.2009C36.7968 17.2023 36.8055 17.2037 36.8142 17.205C36.816 17.2055 36.8179 17.2055 36.8197 17.206C36.8279 17.2073 36.8357 17.2083 36.8435 17.2092C36.8453 17.2096 36.8472 17.2096 36.849 17.2101C36.8572 17.211 36.865 17.2119 36.8732 17.2128C36.8751 17.2128 36.8764 17.2128 36.8783 17.2133C36.8874 17.2137 36.8961 17.2147 36.9048 17.2151C36.9053 17.2151 36.9062 17.2156 36.9067 17.2156C36.9662 17.2197 37.0257 17.2197 37.0843 17.2156C37.0847 17.2156 37.0856 17.2151 37.0861 17.2151C37.0953 17.2147 37.1044 17.2137 37.114 17.2128H37.1149C37.1246 17.2119 37.1342 17.211 37.1438 17.2096H37.1442C37.1832 17.2046 37.2221 17.1982 37.2605 17.1895H37.2614C37.2701 17.1872 37.2793 17.1854 37.288 17.1831C37.2894 17.1831 37.2907 17.1822 37.2926 17.1822C37.2999 17.1803 37.3077 17.178 37.315 17.1762C37.3173 17.1758 37.3196 17.1748 37.3219 17.1744C37.3287 17.1725 37.3356 17.1707 37.3425 17.1684C37.3447 17.168 37.3475 17.1671 37.3498 17.1661C37.3525 17.1657 37.3548 17.1648 37.3576 17.1643V21.6792C37.3576 21.6902 37.3576 21.7012 37.358 21.7122C37.358 21.7227 37.3585 21.7328 37.3589 21.7433V21.7447C37.3626 21.8106 37.3708 21.8756 37.3837 21.9388C37.2564 23.1038 36.9291 24.207 36.4233 25.2036L32.6614 25.6577C32.5144 25.399 32.3171 25.1688 32.0759 24.9797C31.5893 24.5988 30.9832 24.4299 30.3698 24.5041L28.7122 24.705C27.4451 24.8589 26.5397 26.0143 26.6935 27.2809C26.8354 28.4537 27.8365 29.317 28.9892 29.317C29.0816 29.317 29.175 29.3111 29.2693 29.2996L30.9269 29.0987C31.5408 29.0245 32.0887 28.7155 32.4696 28.2289C32.6655 27.9794 32.8051 27.6984 32.8848 27.4013L35.0985 27.1339C34.8568 27.4013 34.5982 27.6544 34.323 27.8911C33.7975 28.3434 33.2505 28.7379 32.6833 29.0744C32.6687 29.0822 32.654 29.09 32.6398 29.0982C31.0912 30.0055 29.3856 30.4839 27.5687 30.5214C27.5628 30.5214 27.5568 30.5219 27.5504 30.5219C27.5248 30.5223 27.4987 30.5228 27.4726 30.5232C27.447 30.5228 27.4209 30.5223 27.3948 30.5219C27.3888 30.5219 27.3824 30.5214 27.3765 30.5214C25.5596 30.4839 23.854 30.0055 22.3058 29.0982C22.2916 29.09 22.277 29.0822 22.2628 29.0749C21.6947 28.7384 21.1477 28.3434 20.6222 27.8911ZM31.0857 27.1445C30.9942 27.2617 30.8624 27.3358 30.715 27.3537L29.0574 27.5546C28.753 27.5922 28.4751 27.3738 28.438 27.0694C28.4014 26.765 28.6189 26.4871 28.9237 26.45L30.5808 26.2491C30.6037 26.2463 30.6261 26.245 30.6486 26.245C30.9255 26.245 31.1663 26.4523 31.2002 26.7343C31.2185 26.8822 31.1778 27.0277 31.0857 27.1445ZM18.8035 36.5913L20.5132 36.0187C20.63 35.9793 20.7563 35.983 20.8694 36.0269C20.8753 36.0292 20.8813 36.032 20.8872 36.0342C20.906 36.0425 20.9225 36.0507 20.9362 36.0576C20.9385 36.059 20.9403 36.0603 20.9426 36.0612L25.7551 38.8303L20.1347 42.2937L18.8035 36.5913ZM22.9444 54.3324L20.5558 44.0987L22.8318 42.6965L24.2092 45.3259L22.9444 54.3324ZM24.1703 58.2422L25.8906 45.9938H29.0546L30.7749 58.2422H24.1703ZM30.7214 45.2197L32.0649 42.6668L34.3894 44.0991L32.0008 54.3324L30.7214 45.2197ZM52.5626 57.8032C52.3273 58.0824 51.9831 58.2422 51.6178 58.2422H32.8934L37.8268 37.1054L45.9447 39.3677C48.4414 40.0635 50.3365 42.1637 50.7728 44.7185L52.8364 56.7984C52.8977 57.1582 52.7979 57.5244 52.5626 57.8032Z" fill="black"/>
</svg>
