<svg width="66" height="65" viewBox="0 0 66 65" fill="none" xmlns="http://www.w3.org/2000/svg">
<path fill-rule="evenodd" clip-rule="evenodd" d="M12.8542 35.5469C13.0551 35.5469 13.2514 35.6064 13.4184 35.718C13.5855 35.8296 13.7156 35.9883 13.7925 36.1738C13.8694 36.3594 13.8895 36.5636 13.8503 36.7606C13.8111 36.9577 13.7144 37.1386 13.5723 37.2807C13.4303 37.4227 13.2493 37.5194 13.0523 37.5586C12.8553 37.5978 12.6511 37.5777 12.4655 37.5008C12.2799 37.4239 12.1213 37.2938 12.0097 37.1267C11.8981 36.9597 11.8386 36.7634 11.8386 36.5625C11.8386 36.2931 11.9456 36.0348 12.136 35.8443C12.3265 35.6539 12.5848 35.5469 12.8542 35.5469Z" fill="#A6A6A6"/>
<path d="M34.1823 59.9219H44.3386V56.875C44.3426 56.6746 44.3986 56.4786 44.5011 56.3063L52.4636 44.3828V29.6359C52.0341 29.7809 51.6446 30.0244 51.3261 30.3469C50.7545 30.9177 50.433 31.6922 50.4323 32.5V40.0563C50.4347 40.2093 50.401 40.3608 50.3339 40.4984C50.2669 40.6361 50.1684 40.756 50.0464 40.8484L39.4026 51.4922C39.3082 51.5874 39.1959 51.6629 39.0721 51.7145C38.9484 51.7661 38.8156 51.7926 38.6815 51.7926C38.5475 51.7926 38.4147 51.7661 38.2909 51.7145C38.1672 51.6629 38.0549 51.5874 37.9604 51.4922C37.8633 51.401 37.7858 51.2909 37.7329 51.1686C37.68 51.0463 37.6527 50.9145 37.6527 50.7813C37.6527 50.648 37.68 50.5162 37.7329 50.3939C37.7858 50.2716 37.8633 50.1615 37.9604 50.0703L42.6729 45.3578C42.8674 45.1641 42.977 44.9011 42.9776 44.6266C42.9792 44.4934 42.953 44.3613 42.9005 44.2389C42.848 44.1164 42.7705 44.0063 42.6729 43.9156C42.5818 43.8185 42.4716 43.741 42.3493 43.6881C42.2271 43.6352 42.0952 43.6079 41.962 43.6079C41.8288 43.6079 41.6969 43.6352 41.5746 43.6881C41.4524 43.741 41.3422 43.8185 41.2511 43.9156L34.7714 50.375C34.5831 50.5648 34.4342 50.7899 34.3331 51.0374C34.232 51.2849 34.1808 51.5499 34.1823 51.8172V59.9219ZM21.6292 43.3063C21.776 42.9967 21.9753 42.7149 22.2182 42.4734C22.7921 41.9078 23.5656 41.5907 24.3714 41.5907C25.1772 41.5907 25.9506 41.9078 26.5245 42.4734L32.9839 48.9328L33.1667 49.1156L33.3495 48.9328L39.8089 42.4734C40.3828 41.9078 41.1562 41.5907 41.962 41.5907C42.7678 41.5907 43.5412 41.9078 44.1151 42.4734C44.3581 42.7149 44.5574 42.9967 44.7042 43.3063L48.4011 39.6297V32.5C48.3984 31.8324 48.5279 31.1708 48.7821 30.5535C49.0364 29.9362 49.4103 29.3753 49.8824 28.9032C50.3545 28.4312 50.9154 28.0572 51.5327 27.803C52.15 27.5487 52.8116 27.4192 53.4792 27.4219C53.7485 27.4219 54.0069 27.5289 54.1973 27.7194C54.3878 27.9098 54.4948 28.1681 54.4948 28.4375V44.6875C54.4938 44.8884 54.4375 45.0851 54.3323 45.2563L46.3698 57.1797V59.9219H47.3854C47.6548 59.9219 47.9131 60.0289 48.1036 60.2194C48.2941 60.4098 48.4011 60.6682 48.4011 60.9375C48.4011 61.2069 48.2941 61.4652 48.1036 61.6557C47.9131 61.8461 47.6548 61.9531 47.3854 61.9531H18.9479C18.6786 61.9531 18.4202 61.8461 18.2298 61.6557C18.0393 61.4652 17.9323 61.2069 17.9323 60.9375C17.9323 60.6682 18.0393 60.4098 18.2298 60.2194C18.4202 60.0289 18.6786 59.9219 18.9479 59.9219H19.9636V57.1797L12.0011 45.2563C11.8958 45.0851 11.8396 44.8884 11.8386 44.6875V40.625C11.8386 40.3556 11.9456 40.0973 12.136 39.9069C12.3265 39.7164 12.5848 39.6094 12.8542 39.6094C13.1235 39.6094 13.3819 39.7164 13.5723 39.9069C13.7628 40.0973 13.8698 40.3556 13.8698 40.625V44.3828L21.8323 56.3063C21.9348 56.4786 21.9908 56.6746 21.9948 56.875V59.9219H32.1511V51.7969C32.1526 51.5296 32.1014 51.2646 32.0003 51.0171C31.8992 50.7696 31.7503 50.5445 31.562 50.3547L25.0417 43.9156C24.9505 43.8185 24.8404 43.741 24.7181 43.6881C24.5958 43.6352 24.464 43.6079 24.3307 43.6079C24.1975 43.6079 24.0657 43.6352 23.9434 43.6881C23.8211 43.741 23.711 43.8185 23.6198 43.9156C23.5222 44.0063 23.4447 44.1164 23.3922 44.2389C23.3398 44.3613 23.3135 44.4934 23.3151 44.6266C23.3152 44.8814 23.4092 45.1273 23.5792 45.3172L28.3323 50.0703C28.4295 50.1615 28.5069 50.2716 28.5598 50.3939C28.6128 50.5162 28.6401 50.648 28.6401 50.7813C28.6401 50.9145 28.6128 51.0463 28.5598 51.1686C28.5069 51.2909 28.4295 51.401 28.3323 51.4922C28.1765 51.639 27.9768 51.7305 27.7639 51.7525C27.551 51.7746 27.3367 51.7259 27.1542 51.6141C27.0675 51.5791 26.9907 51.5233 26.9307 51.4516L16.2464 40.8281C16.1406 40.7287 16.0556 40.6093 15.9963 40.4768C15.9371 40.3443 15.9047 40.2014 15.9011 40.0563V32.5C15.9004 31.6922 15.5789 30.9177 15.0073 30.3469C14.6888 30.0244 14.2993 29.7809 13.8698 29.6359V32.5C13.8698 32.7694 13.7628 33.0277 13.5723 33.2182C13.3819 33.4086 13.1235 33.5156 12.8542 33.5156C12.5848 33.5156 12.3265 33.4086 12.136 33.2182C11.9456 33.0277 11.8386 32.7694 11.8386 32.5V28.4375C11.8386 28.1681 11.9456 27.9098 12.136 27.7194C12.3265 27.5289 12.5848 27.4219 12.8542 27.4219C13.5218 27.4192 14.1834 27.5487 14.8007 27.803C15.418 28.0572 15.9789 28.4312 16.451 28.9032C16.923 29.3753 17.297 29.9362 17.5512 30.5535C17.8055 31.1708 17.935 31.8324 17.9323 32.5V39.6297L21.6292 43.3063Z" fill="#A6A6A6"/>
<path d="M18.9479 23.3594H14.8854C14.6161 23.3594 14.3577 23.2524 14.1673 23.0619C13.9768 22.8714 13.8698 22.6131 13.8698 22.3438C13.8698 22.0744 13.9768 21.8161 14.1673 21.6256C14.3577 21.4351 14.6161 21.3281 14.8854 21.3281H18.9479C19.2173 21.3281 19.4756 21.4351 19.6661 21.6256C19.8566 21.8161 19.9636 22.0744 19.9636 22.3438C19.9636 22.6131 19.8566 22.8714 19.6661 23.0619C19.4756 23.2524 19.2173 23.3594 18.9479 23.3594Z" fill="#A6A6A6"/>
<path d="M23.112 13.3047C22.9788 13.3063 22.8467 13.2801 22.7243 13.2276C22.6019 13.1751 22.4918 13.0976 22.4011 13L19.5167 10.1563C19.4207 10.0602 19.3445 9.94623 19.2925 9.82076C19.2406 9.69529 19.2138 9.56082 19.2138 9.42501C19.2138 9.28921 19.2406 9.15473 19.2925 9.02926C19.3445 8.90379 19.4207 8.78979 19.5167 8.69376C19.6127 8.59773 19.7267 8.52156 19.8522 8.46959C19.9777 8.41762 20.1121 8.39087 20.248 8.39087C20.3838 8.39087 20.5182 8.41762 20.6437 8.46959C20.7692 8.52156 20.8832 8.59773 20.9792 8.69376L23.8229 11.5781C23.9201 11.6693 23.9975 11.7794 24.0505 11.9017C24.1034 12.024 24.1307 12.1558 24.1307 12.2891C24.1307 12.4223 24.1034 12.5541 24.0505 12.6764C23.9975 12.7987 23.9201 12.9088 23.8229 13C23.7323 13.0976 23.6222 13.1751 23.4997 13.2276C23.3773 13.2801 23.2452 13.3063 23.112 13.3047Z" fill="#A6A6A6"/>
<path d="M33.1667 9.14062C32.8973 9.14062 32.639 9.03362 32.4485 8.84315C32.2581 8.65269 32.1511 8.39436 32.1511 8.125V4.0625C32.1511 3.79314 32.2581 3.53481 32.4485 3.34434C32.639 3.15388 32.8973 3.04688 33.1667 3.04688C33.436 3.04688 33.6944 3.15388 33.8848 3.34434C34.0753 3.53481 34.1823 3.79314 34.1823 4.0625V8.125C34.1823 8.39436 34.0753 8.65269 33.8848 8.84315C33.6944 9.03362 33.436 9.14062 33.1667 9.14062Z" fill="#A6A6A6"/>
<path d="M43.3229 13.3047C43.1897 13.3063 43.0576 13.28 42.9352 13.2276C42.8128 13.1751 42.7027 13.0976 42.612 13C42.5148 12.9088 42.4374 12.7987 42.3844 12.6764C42.3315 12.5541 42.3042 12.4223 42.3042 12.289C42.3042 12.1558 42.3315 12.024 42.3844 11.9017C42.4374 11.7794 42.5148 11.6693 42.612 11.5781L45.3542 8.69374C45.4489 8.59904 45.5613 8.52393 45.685 8.47268C45.8087 8.42143 45.9413 8.39505 46.0753 8.39505C46.2092 8.39505 46.3418 8.42143 46.4655 8.47268C46.5892 8.52393 46.7016 8.59904 46.7963 8.69374C46.891 8.78843 46.9662 8.90085 47.0174 9.02458C47.0687 9.1483 47.095 9.28091 47.095 9.41483C47.095 9.54875 47.0687 9.68136 47.0174 9.80508C46.9662 9.92881 46.891 10.0412 46.7963 10.1359L43.9323 13C43.8416 13.0976 43.7315 13.1751 43.6091 13.2276C43.4866 13.28 43.3545 13.3063 43.2213 13.3047H43.3229Z" fill="#A6A6A6"/>
<path d="M51.4479 23.3594H47.3854C47.1161 23.3594 46.8577 23.2524 46.6673 23.0619C46.4768 22.8714 46.3698 22.6131 46.3698 22.3438C46.3698 22.0744 46.4768 21.8161 46.6673 21.6256C46.8577 21.4351 47.1161 21.3281 47.3854 21.3281H51.4479C51.7173 21.3281 51.9756 21.4351 52.1661 21.6256C52.3566 21.8161 52.4636 22.0744 52.4636 22.3438C52.4636 22.6131 52.3566 22.8714 52.1661 23.0619C51.9756 23.2524 51.7173 23.3594 51.4479 23.3594Z" fill="#A6A6A6"/>
<path d="M33.1667 39.6094C33.0456 39.6287 32.9222 39.6287 32.8011 39.6094L31.8667 39.2234C28.9373 38.0611 26.4273 36.0409 24.6657 33.4276C22.9042 30.8142 21.9732 27.7297 21.9948 24.5781V18.2813C21.9931 18.0801 22.0523 17.8832 22.1647 17.7164C22.2771 17.5496 22.4374 17.4208 22.6245 17.3469L32.7808 13.2844C33.028 13.1828 33.3054 13.1828 33.5526 13.2844L43.7089 17.3469C43.896 17.4208 44.0563 17.5496 44.1687 17.7164C44.2811 17.8832 44.3403 18.0801 44.3386 18.2813V24.5781C44.3479 27.7193 43.4112 30.7905 41.6504 33.3918C39.8896 35.9931 37.3864 38.004 34.4667 39.1625L33.5323 39.5484C33.4112 39.5678 33.2878 39.5678 33.1667 39.5484V39.6094ZM24.0261 18.9719V24.5781C24.0158 27.3153 24.83 29.9922 26.3625 32.2601C27.895 34.5281 30.0749 36.2821 32.6183 37.2938L33.1667 37.4969L33.6948 37.2938C36.242 36.2853 38.4262 34.5327 39.9625 32.2645C41.4988 29.9962 42.3159 27.3177 42.3073 24.5781V18.9719L33.1667 15.3156L24.0261 18.9719Z" fill="#A6A6A6"/>
<path d="M31.1354 29.4531C31.0022 29.4547 30.8702 29.4285 30.7477 29.376C30.6253 29.3235 30.5152 29.246 30.4245 29.1484L28.3932 27.1172C28.2047 26.9286 28.0988 26.6729 28.0988 26.4062C28.0988 26.1396 28.2047 25.8839 28.3932 25.6953C28.5818 25.5067 28.8375 25.4008 29.1042 25.4008C29.3708 25.4008 29.6266 25.5067 29.8151 25.6953L31.1354 26.9953L36.5182 21.6328C36.6116 21.5394 36.7224 21.4654 36.8444 21.4149C36.9664 21.3643 37.0971 21.3383 37.2292 21.3383C37.3612 21.3383 37.4919 21.3643 37.6139 21.4149C37.7359 21.4654 37.8467 21.5394 37.9401 21.6328C38.0335 21.7262 38.1075 21.837 38.1581 21.959C38.2086 22.081 38.2346 22.2117 38.2346 22.3437C38.2346 22.4758 38.2086 22.6065 38.1581 22.7285C38.1075 22.8505 38.0335 22.9613 37.9401 23.0547L31.8464 29.1484C31.7557 29.246 31.6456 29.3235 31.5231 29.376C31.4007 29.4285 31.2686 29.4547 31.1354 29.4531Z" fill="#A6A6A6"/>
</svg>
